<?xml version="1.0" encoding="utf-8"?>
<!-- Generator: Adobe Illustrator 18.0.0, SVG Export Plug-In . SVG Version: 6.00 Build 0)  -->
<!DOCTYPE svg PUBLIC "-//W3C//DTD SVG 1.1//EN" "http://www.w3.org/Graphics/SVG/1.1/DTD/svg11.dtd">
<svg version="1.1" id="Layer_1" xmlns="http://www.w3.org/2000/svg" xmlns:xlink="http://www.w3.org/1999/xlink" x="0px" y="0px"
	 viewBox="0 0 420 156" enable-background="new 0 0 420 156" xml:space="preserve">
<title>Logo</title>
<desc>Created with Sketch.</desc>
<title>Pantheon</title>
<desc>Created with Sketch.</desc>
<title>Friday</title>
<desc>Created with Sketch.</desc>
<title>Vorbes</title>
<desc>Created with Sketch.</desc>
<title>Norton</title>
<desc>Created with Sketch.</desc>
<path fill="#E9204F" d="M129.7,87.9c0,0.6,0,7.6-0.1,8.1c-0.1,0.5-0.1,0.8-0.3,1.1c-0.1,0.3-0.3,0.5-0.5,0.6
	c-0.2,0.1-0.4,0.2-0.6,0.2l-38.9,0.2l0.2,53.9c0,0.3-0.1,0.5-0.2,0.7c-0.1,0.2-0.3,0.3-0.6,0.5c-0.3,0.1-0.6,0.2-1.1,0.3
	c-0.5,0.1-1,0.1-1.7,0.1c-0.7,0-9,0.1-9.5,0c-0.5-0.1-0.8-0.2-1.1-0.3c-0.3-0.1-0.5-0.3-0.6-0.5c-0.1-0.2-0.2-0.4-0.2-0.7V97.9H36
	c-0.2,0-0.4-0.1-0.6-0.2c-0.2-0.1-0.3-0.3-0.4-0.6c-0.1-0.3-0.2-0.6-0.3-1.1c-0.1-0.5-0.1-7.5-0.1-8.1c0-0.6,0-1.2,0.1-1.6
	c0.1-0.5,0.2-0.8,0.3-1.1c0.1-0.3,0.3-0.5,0.4-0.6c0.2-0.1,0.4-0.2,0.6-0.2h92.3c0.2,0,0.4,0.1,0.6,0.2c0.2,0.1,0.3,0.3,0.5,0.6
	c0.1,0.3,0.2,0.7,0.3,1.1C129.7,86.8,129.7,87.3,129.7,87.9z"/>
<path fill="#E9204F" d="M250.7,105.7c0,0.5,0,0.9-0.1,1.3c-0.1,0.4-0.2,0.7-0.3,0.9c-0.1,0.2-0.3,0.4-0.5,0.5
	c-0.2,0.1-0.4,0.2-0.6,0.2h-19.5v17.3h18.5c0.2,0,0.4,0,0.6,0.1c0.2,0.1,0.3,0.2,0.5,0.5c0.1,0.2,0.2,0.5,0.3,0.8
	c0.1,0.4,0.1,0.8,0.1,1.4c0,0.5,0,0.9-0.1,1.3c-0.1,0.4-0.2,0.6-0.3,0.9c-0.1,0.2-0.3,0.4-0.5,0.5c-0.2,0.1-0.4,0.2-0.6,0.2h-18.5
	v21.1c0,0.2-0.1,0.4-0.2,0.5c-0.1,0.2-0.3,0.3-0.6,0.4c-0.3,0.1-0.6,0.2-1.1,0.2c-0.4,0.1-1,0.1-1.7,0.1c-0.7,0-1.2,0-1.7-0.1
	c-0.5-0.1-0.8-0.1-1.1-0.2c-0.3-0.1-0.5-0.2-0.6-0.4c-0.1-0.2-0.2-0.3-0.2-0.5v-47c0-1,0.3-1.7,0.8-2.1c0.6-0.4,1.2-0.6,1.8-0.6h24
	c0.2,0,0.4,0.1,0.6,0.2c0.2,0.1,0.3,0.3,0.5,0.5c0.1,0.2,0.2,0.5,0.3,0.9C250.7,104.8,250.7,105.2,250.7,105.7z"/>
<path fill="#E9204F" d="M297,152.5c0,0.2,0,0.4-0.1,0.5c-0.1,0.2-0.3,0.3-0.5,0.4c-0.3,0.1-0.7,0.2-1.2,0.2c-0.5,0.1-1.2,0.1-2,0.1
	c-0.7,0-1.3,0-1.8-0.1c-0.5-0.1-0.8-0.1-1.1-0.3c-0.3-0.1-0.5-0.3-0.6-0.5c-0.2-0.2-0.3-0.5-0.4-0.8l-4.9-12
	c-0.6-1.4-1.2-2.6-1.8-3.7c-0.6-1.1-1.4-2.1-2.2-2.9c-0.9-0.8-1.9-1.5-3-1.9c-1.2-0.5-2.5-0.7-4.2-0.7h-4.7v21.6
	c0,0.2-0.1,0.4-0.2,0.5c-0.1,0.2-0.3,0.3-0.6,0.4c-0.3,0.1-0.6,0.2-1.1,0.2c-0.5,0.1-1,0.1-1.7,0.1c-0.7,0-1.3,0-1.7-0.1
	c-0.5-0.1-0.8-0.1-1.1-0.2c-0.3-0.1-0.5-0.2-0.6-0.4c-0.1-0.2-0.2-0.3-0.2-0.5v-47c0-1,0.3-1.7,0.8-2.1c0.6-0.4,1.2-0.6,1.8-0.6
	h11.3c1.3,0,2.5,0,3.4,0.1c0.9,0.1,1.7,0.1,2.4,0.2c2.1,0.3,3.9,0.9,5.5,1.6c1.6,0.7,2.9,1.7,4,2.8c1.1,1.1,1.9,2.4,2.4,3.9
	c0.5,1.4,0.8,3.1,0.8,4.8c0,1.7-0.2,3.2-0.7,4.6c-0.5,1.3-1.2,2.5-2.1,3.6c-0.9,1-2,1.9-3.3,2.7c-1.3,0.8-2.7,1.4-4.2,1.9
	c0.9,0.4,1.7,0.8,2.4,1.4c0.7,0.6,1.4,1.2,2,2c0.6,0.8,1.2,1.7,1.8,2.7c0.5,1,1.1,2.2,1.6,3.4l4.8,11.2c0.4,0.9,0.6,1.6,0.7,2
	C297,152,297,152.3,297,152.5z M286.4,116.9c0-2-0.5-3.7-1.4-5c-0.9-1.4-2.5-2.4-4.7-3c-0.7-0.2-1.5-0.3-2.3-0.4
	c-0.9-0.1-2-0.1-3.4-0.1h-6v17.1h6.9c1.9,0,3.5-0.2,4.8-0.6c1.4-0.4,2.5-1,3.4-1.8c0.9-0.8,1.6-1.7,2-2.7S286.4,118.1,286.4,116.9z"
	/>
<path fill="#E9204F" d="M337,150.7c0,0.5,0,0.9-0.1,1.2c-0.1,0.4-0.2,0.6-0.3,0.9c-0.1,0.2-0.3,0.4-0.5,0.5
	c-0.2,0.1-0.4,0.2-0.6,0.2h-25.6c-0.6,0-1.2-0.2-1.8-0.6c-0.6-0.4-0.8-1.1-0.8-2.1v-45.2c0-1,0.3-1.7,0.8-2.1
	c0.6-0.4,1.2-0.6,1.8-0.6h25.3c0.2,0,0.4,0.1,0.6,0.2c0.2,0.1,0.3,0.3,0.4,0.5c0.1,0.2,0.2,0.5,0.3,0.9c0.1,0.4,0.1,0.8,0.1,1.3
	c0,0.5,0,0.9-0.1,1.2c-0.1,0.4-0.2,0.6-0.3,0.9c-0.1,0.2-0.3,0.4-0.4,0.5c-0.2,0.1-0.4,0.2-0.6,0.2h-20.9v15.9h17.9
	c0.2,0,0.4,0.1,0.6,0.2c0.2,0.1,0.3,0.3,0.5,0.5c0.1,0.2,0.2,0.5,0.3,0.9c0.1,0.4,0.1,0.8,0.1,1.3c0,0.5,0,0.9-0.1,1.2
	c-0.1,0.3-0.1,0.6-0.3,0.8c-0.1,0.2-0.3,0.4-0.5,0.5c-0.2,0.1-0.4,0.1-0.6,0.1h-17.9v18.2h21.2c0.2,0,0.4,0.1,0.6,0.2
	c0.2,0.1,0.3,0.3,0.5,0.5c0.1,0.2,0.2,0.5,0.3,0.9C337,149.8,337,150.2,337,150.7z"/>
<path fill="#E9204F" d="M406.5,152.5c0,0.2-0.1,0.4-0.2,0.5c-0.1,0.2-0.3,0.3-0.6,0.4c-0.3,0.1-0.6,0.2-1.1,0.2
	c-0.4,0.1-1,0.1-1.7,0.1c-0.7,0-1.2,0-1.7-0.1c-0.5-0.1-0.8-0.1-1.1-0.2c-0.3-0.1-0.5-0.2-0.6-0.4c-0.1-0.2-0.2-0.3-0.2-0.5v-44.2
	h-0.1l-18.8,44.4c-0.1,0.2-0.2,0.3-0.4,0.5c-0.2,0.1-0.4,0.2-0.7,0.3c-0.3,0.1-0.6,0.2-1,0.2c-0.4,0-0.9,0.1-1.4,0.1
	c-0.6,0-1.1,0-1.5-0.1c-0.4-0.1-0.8-0.1-1-0.2c-0.3-0.1-0.5-0.2-0.6-0.3c-0.2-0.1-0.3-0.3-0.3-0.4l-18-44.4h0v44.2
	c0,0.2-0.1,0.4-0.2,0.5c-0.1,0.2-0.3,0.3-0.6,0.4c-0.3,0.1-0.7,0.2-1.1,0.2c-0.5,0.1-1,0.1-1.7,0.1c-0.7,0-1.2,0-1.7-0.1
	c-0.5-0.1-0.8-0.1-1.1-0.2c-0.3-0.1-0.5-0.2-0.6-0.4c-0.1-0.2-0.1-0.3-0.1-0.5v-46.7c0-1.1,0.3-1.9,0.9-2.4c0.6-0.5,1.3-0.7,2.1-0.7
	h4.4c0.9,0,1.7,0.1,2.3,0.2c0.7,0.2,1.3,0.4,1.8,0.7c0.5,0.3,0.9,0.8,1.3,1.3c0.3,0.5,0.6,1.1,0.9,1.8l15.3,36.7h0.2l15.9-36.6
	c0.3-0.8,0.6-1.5,1-2c0.4-0.5,0.8-1,1.2-1.3s0.9-0.6,1.4-0.7c0.5-0.1,1.1-0.2,1.8-0.2h4.6c0.4,0,0.8,0.1,1.2,0.2
	c0.4,0.1,0.7,0.3,1,0.5c0.3,0.2,0.5,0.6,0.6,0.9c0.2,0.4,0.3,0.8,0.3,1.4V152.5z"/>
<g>
	<path fill="#FFFFFF" d="M68.6,138.9c0,2.3-0.5,4.4-1.4,6.2c-1,1.8-2.3,3.4-4,4.6c-1.7,1.3-3.7,2.2-6,2.9c-2.3,0.6-4.8,1-7.5,1
		c-1.9,0-3.6-0.1-5.2-0.4c-1.6-0.3-3-0.6-4.3-1c-1.3-0.4-2.3-0.8-3.1-1.3c-0.8-0.4-1.4-0.8-1.8-1.1c-0.3-0.3-0.6-0.7-0.7-1.2
		c-0.2-0.5-0.2-1.1-0.2-1.9c0-0.6,0-1,0.1-1.4c0.1-0.4,0.1-0.7,0.3-0.9c0.1-0.2,0.3-0.4,0.4-0.5c0.2-0.1,0.4-0.1,0.6-0.1
		c0.4,0,1,0.2,1.7,0.7c0.7,0.4,1.7,0.9,2.8,1.4c1.2,0.5,2.5,1,4.2,1.4s3.5,0.7,5.6,0.7c1.6,0,3.1-0.2,4.4-0.6
		c1.3-0.4,2.5-0.9,3.4-1.6c1-0.7,1.7-1.6,2.2-2.6c0.5-1,0.8-2.2,0.8-3.5c0-1.4-0.4-2.6-1.1-3.6c-0.7-1-1.7-1.9-2.8-2.6
		s-2.5-1.4-4-2.1c-1.5-0.6-3.1-1.3-4.6-1.9c-1.6-0.7-3.1-1.4-4.6-2.2c-1.5-0.8-2.8-1.7-4-2.8c-1.2-1.1-2.1-2.3-2.9-3.8
		c-0.7-1.4-1.1-3.2-1.1-5.2c0-2.1,0.4-3.9,1.3-5.6c0.8-1.6,2-3,3.5-4.1c1.5-1.1,3.3-1.9,5.4-2.5c2.1-0.6,4.3-0.9,6.7-0.9
		c1.2,0,2.5,0.1,3.7,0.3c1.3,0.2,2.4,0.4,3.5,0.8c1.1,0.3,2.1,0.7,3,1.1c0.9,0.4,1.4,0.7,1.7,1c0.3,0.2,0.5,0.4,0.5,0.6
		c0.1,0.1,0.2,0.3,0.2,0.5c0.1,0.2,0.1,0.5,0.1,0.8c0,0.3,0,0.7,0,1.2c0,0.5,0,0.9-0.1,1.2c0,0.4-0.1,0.7-0.2,0.9
		c-0.1,0.2-0.2,0.4-0.4,0.5c-0.2,0.1-0.3,0.2-0.5,0.2c-0.3,0-0.8-0.2-1.5-0.5c-0.7-0.4-1.5-0.8-2.5-1.2c-1-0.4-2.1-0.9-3.5-1.2
		c-1.3-0.4-2.8-0.6-4.5-0.6c-1.6,0-2.9,0.2-4.1,0.6c-1.1,0.4-2.1,0.9-2.8,1.5c-0.7,0.6-1.3,1.3-1.7,2.2c-0.4,0.8-0.6,1.7-0.6,2.7
		c0,1.4,0.4,2.6,1.1,3.6c0.7,1,1.7,1.9,2.9,2.7c1.2,0.8,2.5,1.5,4.1,2.1c1.5,0.6,3.1,1.3,4.7,1.9c1.6,0.7,3.1,1.4,4.7,2.2
		c1.5,0.8,2.9,1.7,4.1,2.8c1.2,1.1,2.2,2.3,2.9,3.8C68.2,135.2,68.6,136.9,68.6,138.9z"/>
	<path fill="#FFFFFF" d="M121.8,133.8v18.7c0,0.2-0.1,0.4-0.2,0.5c-0.1,0.2-0.3,0.3-0.6,0.4c-0.3,0.1-0.6,0.2-1.1,0.2
		c-0.5,0.1-1,0.1-1.7,0.1c-0.7,0-1.3,0-1.7-0.1c-0.5-0.1-0.8-0.1-1.1-0.2c-0.3-0.1-0.5-0.2-0.6-0.4c-0.1-0.2-0.2-0.3-0.2-0.5v-18.7
		l-15.1-28.6c-0.3-0.6-0.5-1.1-0.6-1.4c-0.1-0.3,0-0.6,0.2-0.8c0.2-0.2,0.6-0.3,1.1-0.4c0.5-0.1,1.3-0.1,2.2-0.1c0.8,0,1.5,0,2,0.1
		c0.5,0.1,0.9,0.1,1.2,0.2c0.3,0.1,0.5,0.2,0.7,0.4c0.2,0.2,0.3,0.4,0.4,0.6l7.4,14.6c0.7,1.4,1.4,2.8,2.1,4.4
		c0.7,1.5,1.4,3,2.1,4.6h0.1c0.6-1.5,1.3-3,1.9-4.5c0.7-1.5,1.3-2.9,2-4.4l7.4-14.7c0.1-0.3,0.2-0.5,0.4-0.7
		c0.2-0.2,0.4-0.3,0.6-0.4c0.3-0.1,0.6-0.2,1.1-0.2c0.5-0.1,1.1-0.1,1.8-0.1c1,0,1.8,0,2.3,0.1c0.6,0.1,1,0.2,1.2,0.4
		c0.2,0.2,0.3,0.4,0.2,0.8c-0.1,0.3-0.3,0.8-0.6,1.4L121.8,133.8z"/>
	<path fill="#FFFFFF" d="M173.6,150.6c0,0.5,0,1-0.1,1.3c-0.1,0.4-0.1,0.7-0.3,0.9c-0.1,0.2-0.3,0.4-0.5,0.5
		c-0.2,0.1-0.4,0.2-0.6,0.2h-23.6c-0.6,0-1.2-0.2-1.8-0.6c-0.6-0.4-0.8-1.1-0.8-2.1v-47c0-0.2,0.1-0.4,0.2-0.5
		c0.1-0.2,0.3-0.3,0.6-0.4c0.3-0.1,0.6-0.2,1.1-0.2c0.5-0.1,1-0.1,1.7-0.1c0.7,0,1.3,0,1.7,0.1c0.5,0.1,0.8,0.1,1.1,0.2
		s0.5,0.2,0.6,0.4c0.1,0.2,0.2,0.3,0.2,0.5v43.9h19.1c0.2,0,0.5,0.1,0.6,0.2c0.2,0.1,0.3,0.3,0.5,0.5c0.1,0.2,0.2,0.5,0.3,0.9
		S173.6,150.1,173.6,150.6z"/>
	<path fill="#FFFFFF" d="M211.1,150.7c0,0.5,0,0.9-0.1,1.2c-0.1,0.4-0.2,0.6-0.3,0.9c-0.1,0.2-0.3,0.4-0.5,0.5
		c-0.2,0.1-0.4,0.2-0.6,0.2h-25.6c-0.6,0-1.2-0.2-1.8-0.6c-0.6-0.4-0.8-1.1-0.8-2.1v-45.2c0-1,0.3-1.7,0.8-2.1
		c0.6-0.4,1.2-0.6,1.8-0.6h25.3c0.2,0,0.4,0.1,0.6,0.2c0.2,0.1,0.3,0.3,0.4,0.5c0.1,0.2,0.2,0.5,0.3,0.9c0.1,0.4,0.1,0.8,0.1,1.3
		c0,0.5,0,0.9-0.1,1.2c-0.1,0.4-0.2,0.6-0.3,0.9c-0.1,0.2-0.3,0.4-0.4,0.5c-0.2,0.1-0.4,0.2-0.6,0.2h-20.9v15.9h17.9
		c0.2,0,0.4,0.1,0.6,0.2c0.2,0.1,0.3,0.3,0.5,0.5c0.1,0.2,0.2,0.5,0.3,0.9c0.1,0.4,0.1,0.8,0.1,1.3c0,0.5,0,0.9-0.1,1.2
		c-0.1,0.3-0.1,0.6-0.3,0.8c-0.1,0.2-0.3,0.4-0.5,0.5c-0.2,0.1-0.4,0.1-0.6,0.1h-17.9v18.2h21.2c0.2,0,0.4,0.1,0.6,0.2
		c0.2,0.1,0.3,0.3,0.5,0.5c0.1,0.2,0.2,0.5,0.3,0.9C211.1,149.8,211.1,150.2,211.1,150.7z"/>
	<g>
		<path fill="#FFFFFF" d="M148,97.3c0,0.1,0,0.2,0,0.3c0,0.1,0,0.2-0.1,0.2c0,0.1-0.1,0.1-0.1,0.1c-0.1,0-0.1,0-0.2,0h-7.3
			c-0.2,0-0.4-0.1-0.5-0.2c-0.2-0.1-0.2-0.3-0.2-0.6V84.7c0-0.3,0.1-0.5,0.2-0.6c0.2-0.1,0.3-0.2,0.5-0.2h7.2c0.1,0,0.1,0,0.2,0
			c0.1,0,0.1,0.1,0.1,0.1c0,0.1,0.1,0.1,0.1,0.2c0,0.1,0,0.2,0,0.4c0,0.1,0,0.2,0,0.3c0,0.1,0,0.2-0.1,0.2c0,0.1-0.1,0.1-0.1,0.1
			c-0.1,0-0.1,0-0.2,0h-5.9V90h5.1c0.1,0,0.1,0,0.2,0c0.1,0,0.1,0.1,0.1,0.1c0,0.1,0.1,0.1,0.1,0.2c0,0.1,0,0.2,0,0.4
			c0,0.1,0,0.2,0,0.3c0,0.1,0,0.2-0.1,0.2c0,0.1-0.1,0.1-0.1,0.1c-0.1,0-0.1,0-0.2,0h-5.1v5h6c0.1,0,0.1,0,0.2,0
			c0.1,0,0.1,0.1,0.1,0.1c0,0.1,0.1,0.1,0.1,0.2C148,97,148,97.2,148,97.3z"/>
		<path fill="#FFFFFF" d="M166.4,97.4c0.1,0.2,0.2,0.3,0.2,0.4c0,0.1,0,0.2-0.1,0.2c-0.1,0.1-0.2,0.1-0.3,0.1c-0.2,0-0.4,0-0.6,0
			c-0.3,0-0.4,0-0.6,0c-0.1,0-0.3,0-0.3-0.1c-0.1,0-0.1-0.1-0.2-0.1c0,0-0.1-0.1-0.1-0.2l-3.4-5.6l-3.4,5.6c0,0.1-0.1,0.1-0.1,0.2
			s-0.1,0.1-0.2,0.1c-0.1,0-0.2,0-0.3,0.1c-0.1,0-0.3,0-0.6,0c-0.3,0-0.5,0-0.6,0s-0.3-0.1-0.3-0.1s-0.1-0.1-0.1-0.2
			c0-0.1,0.1-0.2,0.2-0.4l4.1-6.5l-4-6.3c-0.1-0.2-0.2-0.3-0.2-0.4c0-0.1,0-0.2,0.1-0.2c0.1-0.1,0.2-0.1,0.3-0.1c0.2,0,0.4,0,0.6,0
			c0.2,0,0.4,0,0.6,0c0.1,0,0.3,0,0.4,0.1c0.1,0,0.1,0.1,0.2,0.1c0,0,0.1,0.1,0.1,0.2l3.3,5.3l3.2-5.3c0-0.1,0.1-0.1,0.1-0.2
			c0,0,0.1-0.1,0.2-0.1c0.1,0,0.2,0,0.3-0.1c0.1,0,0.3,0,0.5,0c0.2,0,0.4,0,0.6,0c0.2,0,0.3,0.1,0.3,0.1c0.1,0.1,0.1,0.1,0.1,0.2
			c0,0.1-0.1,0.2-0.2,0.4l-3.9,6.2L166.4,97.4z"/>
		<path fill="#FFFFFF" d="M184,88.1c0,0.7-0.1,1.3-0.4,1.9c-0.3,0.6-0.6,1-1.1,1.4c-0.5,0.4-1,0.7-1.7,0.9c-0.7,0.2-1.5,0.3-2.4,0.3
			h-1.7v5.1c0,0.1,0,0.1-0.1,0.2c0,0-0.1,0.1-0.2,0.1c-0.1,0-0.2,0-0.3,0.1c-0.1,0-0.3,0-0.5,0s-0.4,0-0.5,0c-0.1,0-0.2,0-0.3-0.1
			c-0.1,0-0.1-0.1-0.2-0.1c0,0,0-0.1,0-0.2v-13c0-0.3,0.1-0.5,0.2-0.6s0.3-0.2,0.6-0.2h3.3c0.3,0,0.6,0,0.9,0c0.3,0,0.7,0.1,1.1,0.2
			c0.4,0.1,0.8,0.2,1.3,0.5c0.4,0.2,0.8,0.5,1.1,0.8c0.3,0.3,0.5,0.7,0.7,1.2C183.9,87.1,184,87.6,184,88.1z M181.8,88.3
			c0-0.6-0.1-1.1-0.3-1.4c-0.2-0.4-0.5-0.7-0.9-0.9c-0.3-0.2-0.7-0.3-1.1-0.4c-0.4-0.1-0.7-0.1-1.1-0.1h-1.9v5.7h1.8
			c0.6,0,1.1-0.1,1.5-0.2c0.4-0.1,0.7-0.3,1-0.6c0.3-0.3,0.5-0.6,0.6-0.9C181.8,89.1,181.8,88.7,181.8,88.3z"/>
		<path fill="#FFFFFF" d="M202.6,97.8c0,0.1,0,0.1,0,0.2c0,0-0.1,0.1-0.2,0.1c-0.1,0-0.2,0.1-0.3,0.1c-0.1,0-0.3,0-0.6,0
			c-0.2,0-0.4,0-0.5,0c-0.1,0-0.2,0-0.3-0.1c-0.1,0-0.1-0.1-0.2-0.1c0-0.1-0.1-0.1-0.1-0.2l-1.4-3.3c-0.2-0.4-0.3-0.7-0.5-1
			c-0.2-0.3-0.4-0.6-0.6-0.8c-0.2-0.2-0.5-0.4-0.9-0.5c-0.3-0.1-0.7-0.2-1.2-0.2h-1.4v6c0,0.1,0,0.1-0.1,0.2s-0.1,0.1-0.2,0.1
			c-0.1,0-0.2,0-0.3,0.1c-0.1,0-0.3,0-0.5,0s-0.4,0-0.5,0c-0.1,0-0.2,0-0.3-0.1c-0.1,0-0.1-0.1-0.2-0.1c0,0,0-0.1,0-0.2v-13
			c0-0.3,0.1-0.5,0.2-0.6c0.2-0.1,0.3-0.2,0.5-0.2h3.2c0.4,0,0.7,0,1,0s0.5,0,0.7,0.1c0.6,0.1,1.1,0.2,1.6,0.4
			c0.4,0.2,0.8,0.5,1.1,0.8c0.3,0.3,0.5,0.7,0.7,1.1s0.2,0.8,0.2,1.3c0,0.5-0.1,0.9-0.2,1.3c-0.1,0.4-0.3,0.7-0.6,1
			c-0.3,0.3-0.6,0.5-0.9,0.7c-0.4,0.2-0.8,0.4-1.2,0.5c0.3,0.1,0.5,0.2,0.7,0.4c0.2,0.2,0.4,0.3,0.6,0.6s0.3,0.5,0.5,0.8
			c0.2,0.3,0.3,0.6,0.5,1l1.4,3.1c0.1,0.3,0.2,0.4,0.2,0.5C202.6,97.6,202.6,97.7,202.6,97.8z M199.6,87.9c0-0.6-0.1-1-0.4-1.4
			c-0.3-0.4-0.7-0.7-1.3-0.8c-0.2-0.1-0.4-0.1-0.7-0.1c-0.2,0-0.6,0-1,0h-1.7v4.7h2c0.5,0,1-0.1,1.4-0.2c0.4-0.1,0.7-0.3,1-0.5
			s0.4-0.5,0.6-0.8C199.5,88.5,199.6,88.2,199.6,87.9z"/>
		<path fill="#FFFFFF" d="M219.5,97.3c0,0.1,0,0.2,0,0.3c0,0.1,0,0.2-0.1,0.2c0,0.1-0.1,0.1-0.1,0.1c-0.1,0-0.1,0-0.2,0h-7.3
			c-0.2,0-0.4-0.1-0.5-0.2c-0.2-0.1-0.2-0.3-0.2-0.6V84.7c0-0.3,0.1-0.5,0.2-0.6c0.2-0.1,0.3-0.2,0.5-0.2h7.2c0.1,0,0.1,0,0.2,0
			c0.1,0,0.1,0.1,0.1,0.1c0,0.1,0.1,0.1,0.1,0.2c0,0.1,0,0.2,0,0.4c0,0.1,0,0.2,0,0.3c0,0.1,0,0.2-0.1,0.2c0,0.1-0.1,0.1-0.1,0.1
			c-0.1,0-0.1,0-0.2,0H213V90h5.1c0.1,0,0.1,0,0.2,0c0.1,0,0.1,0.1,0.1,0.1s0.1,0.1,0.1,0.2c0,0.1,0,0.2,0,0.4c0,0.1,0,0.2,0,0.3
			c0,0.1,0,0.2-0.1,0.2s-0.1,0.1-0.1,0.1c-0.1,0-0.1,0-0.2,0H213v5h6c0.1,0,0.1,0,0.2,0c0.1,0,0.1,0.1,0.1,0.1
			c0,0.1,0.1,0.1,0.1,0.2C219.4,97,219.5,97.2,219.5,97.3z"/>
		<path fill="#FFFFFF" d="M236.3,94.1c0,0.7-0.1,1.2-0.4,1.8c-0.3,0.5-0.6,1-1.1,1.3c-0.5,0.4-1,0.6-1.6,0.8c-0.6,0.2-1.3,0.3-2,0.3
			c-0.5,0-1,0-1.4-0.1s-0.8-0.2-1.2-0.3c-0.3-0.1-0.6-0.2-0.9-0.4c-0.2-0.1-0.4-0.2-0.5-0.3c-0.1-0.1-0.2-0.2-0.2-0.3
			c0-0.1-0.1-0.3-0.1-0.5c0-0.2,0-0.3,0-0.4c0-0.1,0-0.2,0.1-0.3c0-0.1,0.1-0.1,0.1-0.1c0,0,0.1,0,0.2,0c0.1,0,0.3,0.1,0.5,0.2
			c0.2,0.1,0.5,0.3,0.8,0.4c0.3,0.1,0.7,0.3,1.1,0.4c0.4,0.1,1,0.2,1.5,0.2c0.4,0,0.8-0.1,1.2-0.2c0.4-0.1,0.7-0.3,0.9-0.5
			c0.3-0.2,0.5-0.4,0.6-0.7s0.2-0.6,0.2-1c0-0.4-0.1-0.7-0.3-1c-0.2-0.3-0.5-0.5-0.8-0.7c-0.3-0.2-0.7-0.4-1.1-0.6
			c-0.4-0.2-0.8-0.4-1.3-0.5c-0.4-0.2-0.8-0.4-1.3-0.6c-0.4-0.2-0.8-0.5-1.1-0.8c-0.3-0.3-0.6-0.7-0.8-1.1c-0.2-0.4-0.3-0.9-0.3-1.5
			c0-0.6,0.1-1.1,0.3-1.6c0.2-0.5,0.6-0.8,1-1.2c0.4-0.3,0.9-0.5,1.5-0.7c0.6-0.2,1.2-0.2,1.8-0.2c0.3,0,0.7,0,1,0.1
			c0.3,0.1,0.7,0.1,1,0.2c0.3,0.1,0.6,0.2,0.8,0.3c0.2,0.1,0.4,0.2,0.5,0.3c0.1,0.1,0.1,0.1,0.1,0.2c0,0,0,0.1,0.1,0.2
			c0,0.1,0,0.1,0,0.2c0,0.1,0,0.2,0,0.3c0,0.1,0,0.2,0,0.3c0,0.1,0,0.2-0.1,0.3c0,0.1-0.1,0.1-0.1,0.2c0,0-0.1,0-0.1,0
			c-0.1,0-0.2-0.1-0.4-0.2c-0.2-0.1-0.4-0.2-0.7-0.3c-0.3-0.1-0.6-0.2-0.9-0.3c-0.4-0.1-0.8-0.2-1.2-0.2c-0.4,0-0.8,0.1-1.1,0.2
			c-0.3,0.1-0.6,0.2-0.8,0.4s-0.4,0.4-0.5,0.6c-0.1,0.2-0.2,0.5-0.2,0.8c0,0.4,0.1,0.7,0.3,1c0.2,0.3,0.5,0.5,0.8,0.8
			c0.3,0.2,0.7,0.4,1.1,0.6c0.4,0.2,0.8,0.4,1.3,0.5c0.4,0.2,0.9,0.4,1.3,0.6c0.4,0.2,0.8,0.5,1.1,0.8c0.3,0.3,0.6,0.7,0.8,1.1
			C236.2,93.1,236.3,93.6,236.3,94.1z"/>
		<path fill="#FFFFFF" d="M252.8,94.1c0,0.7-0.1,1.2-0.4,1.8c-0.3,0.5-0.6,1-1.1,1.3c-0.5,0.4-1,0.6-1.6,0.8c-0.6,0.2-1.3,0.3-2,0.3
			c-0.5,0-1,0-1.4-0.1s-0.8-0.2-1.2-0.3s-0.6-0.2-0.9-0.4c-0.2-0.1-0.4-0.2-0.5-0.3c-0.1-0.1-0.2-0.2-0.2-0.3c0-0.1-0.1-0.3-0.1-0.5
			c0-0.2,0-0.3,0-0.4c0-0.1,0-0.2,0.1-0.3c0-0.1,0.1-0.1,0.1-0.1c0,0,0.1,0,0.2,0c0.1,0,0.3,0.1,0.5,0.2c0.2,0.1,0.5,0.3,0.8,0.4
			c0.3,0.1,0.7,0.3,1.1,0.4c0.4,0.1,1,0.2,1.5,0.2c0.4,0,0.8-0.1,1.2-0.2c0.4-0.1,0.7-0.3,0.9-0.5c0.3-0.2,0.5-0.4,0.6-0.7
			s0.2-0.6,0.2-1c0-0.4-0.1-0.7-0.3-1c-0.2-0.3-0.5-0.5-0.8-0.7c-0.3-0.2-0.7-0.4-1.1-0.6c-0.4-0.2-0.8-0.4-1.3-0.5
			c-0.4-0.2-0.8-0.4-1.3-0.6c-0.4-0.2-0.8-0.5-1.1-0.8c-0.3-0.3-0.6-0.7-0.8-1.1c-0.2-0.4-0.3-0.9-0.3-1.5c0-0.6,0.1-1.1,0.3-1.6
			c0.2-0.5,0.6-0.8,1-1.2c0.4-0.3,0.9-0.5,1.5-0.7c0.6-0.2,1.2-0.2,1.8-0.2c0.3,0,0.7,0,1,0.1c0.3,0.1,0.7,0.1,1,0.2
			c0.3,0.1,0.6,0.2,0.8,0.3c0.2,0.1,0.4,0.2,0.5,0.3c0.1,0.1,0.1,0.1,0.1,0.2s0,0.1,0.1,0.2c0,0.1,0,0.1,0,0.2c0,0.1,0,0.2,0,0.3
			c0,0.1,0,0.2,0,0.3c0,0.1,0,0.2-0.1,0.3c0,0.1-0.1,0.1-0.1,0.2c0,0-0.1,0-0.1,0c-0.1,0-0.2-0.1-0.4-0.2c-0.2-0.1-0.4-0.2-0.7-0.3
			c-0.3-0.1-0.6-0.2-0.9-0.3c-0.4-0.1-0.8-0.2-1.2-0.2c-0.4,0-0.8,0.1-1.1,0.2c-0.3,0.1-0.6,0.2-0.8,0.4s-0.4,0.4-0.5,0.6
			c-0.1,0.2-0.2,0.5-0.2,0.8c0,0.4,0.1,0.7,0.3,1c0.2,0.3,0.5,0.5,0.8,0.8c0.3,0.2,0.7,0.4,1.1,0.6c0.4,0.2,0.8,0.4,1.3,0.5
			c0.4,0.2,0.9,0.4,1.3,0.6c0.4,0.2,0.8,0.5,1.1,0.8c0.3,0.3,0.6,0.7,0.8,1.1C252.7,93.1,252.8,93.6,252.8,94.1z"/>
		<path fill="#FFFFFF" d="M276.9,92.6v5.2c0,0.1,0,0.1,0,0.2c0,0-0.1,0.1-0.2,0.1c-0.1,0-0.2,0-0.3,0.1c-0.1,0-0.3,0-0.5,0
			c-0.2,0-0.4,0-0.5,0s-0.2,0-0.3-0.1c-0.1,0-0.1-0.1-0.2-0.1c0,0,0-0.1,0-0.2v-5.2l-4.3-8c-0.1-0.2-0.1-0.3-0.2-0.4
			c0-0.1,0-0.2,0.1-0.2c0.1-0.1,0.2-0.1,0.3-0.1c0.2,0,0.4,0,0.6,0c0.2,0,0.4,0,0.6,0c0.1,0,0.3,0,0.3,0.1c0.1,0,0.2,0.1,0.2,0.1
			c0,0,0.1,0.1,0.1,0.2l2.1,4.1c0.2,0.4,0.4,0.8,0.6,1.2c0.2,0.4,0.4,0.8,0.6,1.3h0c0.2-0.4,0.4-0.8,0.6-1.2s0.4-0.8,0.6-1.2
			l2.1-4.1c0-0.1,0.1-0.1,0.1-0.2c0-0.1,0.1-0.1,0.2-0.1c0.1,0,0.2,0,0.3-0.1c0.1,0,0.3,0,0.5,0c0.3,0,0.5,0,0.7,0
			c0.2,0,0.3,0.1,0.3,0.1c0.1,0.1,0.1,0.1,0.1,0.2c0,0.1-0.1,0.2-0.2,0.4L276.9,92.6z"/>
		<path fill="#FFFFFF" d="M302,90.9c0,1.1-0.1,2.2-0.4,3.1c-0.3,0.9-0.7,1.7-1.3,2.3c-0.6,0.6-1.3,1.1-2.2,1.5
			c-0.9,0.3-1.9,0.5-3,0.5c-1.1,0-2.1-0.2-3-0.5c-0.8-0.3-1.5-0.8-2.1-1.4c-0.5-0.6-1-1.4-1.2-2.2c-0.3-0.9-0.4-1.9-0.4-3.1
			c0-1.1,0.1-2.1,0.4-3c0.3-0.9,0.7-1.7,1.3-2.3c0.6-0.6,1.3-1.1,2.2-1.5c0.9-0.3,1.9-0.5,3-0.5c1.1,0,2.1,0.2,2.9,0.5
			c0.8,0.3,1.5,0.8,2.1,1.4c0.6,0.6,1,1.3,1.2,2.2C301.8,88.7,302,89.7,302,90.9z M299.8,91c0-0.8-0.1-1.5-0.2-2.2
			c-0.2-0.7-0.4-1.3-0.8-1.8c-0.4-0.5-0.8-0.9-1.4-1.2c-0.6-0.3-1.3-0.4-2.2-0.4c-0.9,0-1.6,0.2-2.2,0.5c-0.6,0.3-1.1,0.7-1.4,1.2
			c-0.4,0.5-0.6,1.1-0.8,1.8c-0.2,0.7-0.2,1.4-0.2,2.1c0,0.8,0.1,1.6,0.2,2.3c0.1,0.7,0.4,1.3,0.8,1.8c0.4,0.5,0.8,0.9,1.4,1.2
			c0.6,0.3,1.3,0.4,2.2,0.4c0.9,0,1.6-0.2,2.2-0.5c0.6-0.3,1.1-0.7,1.5-1.2c0.4-0.5,0.6-1.1,0.8-1.8C299.7,92.5,299.8,91.8,299.8,91
			z"/>
		<path fill="#FFFFFF" d="M322,92.9c0,0.9-0.1,1.6-0.4,2.3s-0.7,1.2-1.2,1.7c-0.5,0.5-1.1,0.8-1.8,1.1s-1.5,0.4-2.5,0.4
			c-0.8,0-1.6-0.1-2.3-0.3c-0.7-0.2-1.3-0.6-1.8-1c-0.5-0.4-0.9-1-1.1-1.6c-0.3-0.7-0.4-1.4-0.4-2.3v-8.7c0-0.1,0-0.1,0-0.2
			c0,0,0.1-0.1,0.2-0.1c0.1,0,0.2,0,0.3-0.1s0.3,0,0.5,0c0.2,0,0.3,0,0.5,0c0.1,0,0.2,0,0.3,0.1s0.1,0.1,0.2,0.1c0,0,0,0.1,0,0.2
			v8.5c0,0.7,0.1,1.2,0.3,1.7c0.2,0.5,0.4,0.9,0.7,1.2c0.3,0.3,0.7,0.6,1.2,0.7c0.5,0.2,1,0.2,1.5,0.2c0.6,0,1.1-0.1,1.6-0.2
			c0.5-0.2,0.8-0.4,1.2-0.7c0.3-0.3,0.6-0.7,0.7-1.2c0.2-0.5,0.3-1,0.3-1.7v-8.6c0-0.1,0-0.1,0-0.2c0,0,0.1-0.1,0.2-0.1
			s0.2,0,0.3-0.1s0.3,0,0.5,0c0.2,0,0.3,0,0.5,0c0.1,0,0.2,0,0.3,0.1c0.1,0,0.1,0.1,0.2,0.1c0,0,0.1,0.1,0.1,0.2V92.9z"/>
		<path fill="#FFFFFF" d="M341.6,97.8c0,0.1,0,0.1,0,0.2c0,0-0.1,0.1-0.2,0.1c-0.1,0-0.2,0.1-0.3,0.1c-0.1,0-0.3,0-0.6,0
			c-0.2,0-0.4,0-0.5,0s-0.2,0-0.3-0.1c-0.1,0-0.1-0.1-0.2-0.1c0-0.1-0.1-0.1-0.1-0.2l-1.4-3.3c-0.2-0.4-0.3-0.7-0.5-1
			s-0.4-0.6-0.6-0.8c-0.2-0.2-0.5-0.4-0.9-0.5c-0.3-0.1-0.7-0.2-1.2-0.2h-1.4v6c0,0.1,0,0.1-0.1,0.2c0,0-0.1,0.1-0.2,0.1
			c-0.1,0-0.2,0-0.3,0.1s-0.3,0-0.5,0s-0.4,0-0.5,0c-0.1,0-0.2,0-0.3-0.1c-0.1,0-0.1-0.1-0.2-0.1c0,0,0-0.1,0-0.2v-13
			c0-0.3,0.1-0.5,0.2-0.6c0.2-0.1,0.3-0.2,0.5-0.2h3.2c0.4,0,0.7,0,1,0c0.3,0,0.5,0,0.7,0.1c0.6,0.1,1.1,0.2,1.6,0.4
			c0.4,0.2,0.8,0.5,1.1,0.8c0.3,0.3,0.5,0.7,0.7,1.1c0.2,0.4,0.2,0.8,0.2,1.3c0,0.5-0.1,0.9-0.2,1.3c-0.1,0.4-0.3,0.7-0.6,1
			c-0.3,0.3-0.6,0.5-0.9,0.7c-0.4,0.2-0.8,0.4-1.2,0.5c0.3,0.1,0.5,0.2,0.7,0.4c0.2,0.2,0.4,0.3,0.6,0.6c0.2,0.2,0.3,0.5,0.5,0.8
			c0.2,0.3,0.3,0.6,0.5,1l1.4,3.1c0.1,0.3,0.2,0.4,0.2,0.5C341.6,97.6,341.6,97.7,341.6,97.8z M338.6,87.9c0-0.6-0.1-1-0.4-1.4
			c-0.3-0.4-0.7-0.7-1.3-0.8c-0.2-0.1-0.4-0.1-0.7-0.1c-0.2,0-0.6,0-1,0h-1.7v4.7h2c0.5,0,1-0.1,1.4-0.2c0.4-0.1,0.7-0.3,1-0.5
			c0.3-0.2,0.4-0.5,0.6-0.8C338.5,88.5,338.6,88.2,338.6,87.9z"/>
		<path fill="#FFFFFF" d="M358.1,94.1c0,0.7-0.1,1.2-0.4,1.8s-0.6,1-1.1,1.3c-0.5,0.4-1,0.6-1.6,0.8c-0.6,0.2-1.3,0.3-2,0.3
			c-0.5,0-1,0-1.4-0.1c-0.4-0.1-0.8-0.2-1.2-0.3s-0.6-0.2-0.9-0.4s-0.4-0.2-0.5-0.3c-0.1-0.1-0.2-0.2-0.2-0.3c0-0.1-0.1-0.3-0.1-0.5
			c0-0.2,0-0.3,0-0.4s0-0.2,0.1-0.3c0-0.1,0.1-0.1,0.1-0.1c0,0,0.1,0,0.2,0c0.1,0,0.3,0.1,0.5,0.2c0.2,0.1,0.5,0.3,0.8,0.4
			c0.3,0.1,0.7,0.3,1.1,0.4c0.4,0.1,1,0.2,1.5,0.2c0.4,0,0.8-0.1,1.2-0.2c0.4-0.1,0.7-0.3,0.9-0.5c0.3-0.2,0.5-0.4,0.6-0.7
			c0.1-0.3,0.2-0.6,0.2-1c0-0.4-0.1-0.7-0.3-1c-0.2-0.3-0.5-0.5-0.8-0.7c-0.3-0.2-0.7-0.4-1.1-0.6s-0.8-0.4-1.3-0.5
			c-0.4-0.2-0.8-0.4-1.3-0.6c-0.4-0.2-0.8-0.5-1.1-0.8c-0.3-0.3-0.6-0.7-0.8-1.1c-0.2-0.4-0.3-0.9-0.3-1.5c0-0.6,0.1-1.1,0.3-1.6
			c0.2-0.5,0.6-0.8,1-1.2s0.9-0.5,1.5-0.7c0.6-0.2,1.2-0.2,1.8-0.2c0.3,0,0.7,0,1,0.1s0.7,0.1,1,0.2c0.3,0.1,0.6,0.2,0.8,0.3
			c0.2,0.1,0.4,0.2,0.5,0.3c0.1,0.1,0.1,0.1,0.1,0.2c0,0,0,0.1,0.1,0.2s0,0.1,0,0.2c0,0.1,0,0.2,0,0.3c0,0.1,0,0.2,0,0.3
			c0,0.1,0,0.2-0.1,0.3c0,0.1-0.1,0.1-0.1,0.2c0,0-0.1,0-0.1,0c-0.1,0-0.2-0.1-0.4-0.2c-0.2-0.1-0.4-0.2-0.7-0.3
			c-0.3-0.1-0.6-0.2-0.9-0.3c-0.4-0.1-0.8-0.2-1.2-0.2c-0.4,0-0.8,0.1-1.1,0.2c-0.3,0.1-0.6,0.2-0.8,0.4c-0.2,0.2-0.4,0.4-0.5,0.6
			c-0.1,0.2-0.2,0.5-0.2,0.8c0,0.4,0.1,0.7,0.3,1c0.2,0.3,0.5,0.5,0.8,0.8c0.3,0.2,0.7,0.4,1.1,0.6c0.4,0.2,0.8,0.4,1.3,0.5
			c0.4,0.2,0.9,0.4,1.3,0.6c0.4,0.2,0.8,0.5,1.1,0.8c0.3,0.3,0.6,0.7,0.8,1.1S358.1,93.6,358.1,94.1z"/>
		<path fill="#FFFFFF" d="M374.9,97.3c0,0.1,0,0.2,0,0.3c0,0.1,0,0.2-0.1,0.2c0,0.1-0.1,0.1-0.1,0.1c-0.1,0-0.1,0-0.2,0h-7.3
			c-0.2,0-0.3-0.1-0.5-0.2c-0.2-0.1-0.2-0.3-0.2-0.6V84.7c0-0.3,0.1-0.5,0.2-0.6c0.2-0.1,0.3-0.2,0.5-0.2h7.2c0.1,0,0.1,0,0.2,0
			c0.1,0,0.1,0.1,0.1,0.1c0,0.1,0.1,0.1,0.1,0.2c0,0.1,0,0.2,0,0.4c0,0.1,0,0.2,0,0.3c0,0.1,0,0.2-0.1,0.2c0,0.1-0.1,0.1-0.1,0.1
			c-0.1,0-0.1,0-0.2,0h-5.9V90h5.1c0.1,0,0.1,0,0.2,0c0.1,0,0.1,0.1,0.1,0.1c0,0.1,0.1,0.1,0.1,0.2c0,0.1,0,0.2,0,0.4
			c0,0.1,0,0.2,0,0.3c0,0.1,0,0.2-0.1,0.2c0,0.1-0.1,0.1-0.1,0.1c0,0-0.1,0-0.2,0h-5.1v5h6c0.1,0,0.1,0,0.2,0c0.1,0,0.1,0.1,0.1,0.1
			c0,0.1,0.1,0.1,0.1,0.2C374.9,97,374.9,97.2,374.9,97.3z"/>
		<path fill="#FFFFFF" d="M391.5,97.3c0,0.1,0,0.3,0,0.4s0,0.2-0.1,0.3c0,0.1-0.1,0.1-0.1,0.2c0,0-0.1,0-0.2,0h-6.7
			c-0.2,0-0.3-0.1-0.5-0.2c-0.2-0.1-0.2-0.3-0.2-0.6v-13c0-0.1,0-0.1,0-0.2c0,0,0.1-0.1,0.2-0.1c0.1,0,0.2,0,0.3-0.1s0.3,0,0.5,0
			c0.2,0,0.4,0,0.5,0s0.2,0,0.3,0.1s0.1,0.1,0.2,0.1c0,0,0,0.1,0,0.2v12.2h5.5c0.1,0,0.1,0,0.2,0c0.1,0,0.1,0.1,0.1,0.1
			c0,0.1,0.1,0.1,0.1,0.2S391.5,97.1,391.5,97.3z"/>
		<path fill="#FFFFFF" d="M407.2,84.8c0,0.1,0,0.3,0,0.4c0,0.1,0,0.2-0.1,0.2c0,0.1-0.1,0.1-0.1,0.1c-0.1,0-0.1,0-0.2,0h-5.6v4.8
			h5.3c0.1,0,0.1,0,0.2,0c0.1,0,0.1,0.1,0.1,0.1c0,0.1,0.1,0.1,0.1,0.2c0,0.1,0,0.2,0,0.4c0,0.1,0,0.3,0,0.4c0,0.1,0,0.2-0.1,0.2
			c0,0.1-0.1,0.1-0.1,0.1c0,0-0.1,0-0.2,0h-5.3v5.9c0,0.1,0,0.1,0,0.1c0,0-0.1,0.1-0.2,0.1c-0.1,0-0.2,0-0.3,0.1s-0.3,0-0.5,0
			c-0.2,0-0.3,0-0.5,0c-0.1,0-0.2,0-0.3-0.1c-0.1,0-0.1-0.1-0.2-0.1c0,0,0-0.1,0-0.1v-13c0-0.3,0.1-0.5,0.2-0.6
			c0.2-0.1,0.3-0.2,0.5-0.2h6.8c0.1,0,0.1,0,0.2,0c0,0,0.1,0.1,0.1,0.1c0,0.1,0.1,0.2,0.1,0.3C407.2,84.5,407.2,84.6,407.2,84.8z"/>
	</g>
</g>
</svg>
