<?xml version="1.0" encoding="utf-8"?>
<!-- Generator: Adobe Illustrator 18.0.0, SVG Export Plug-In . SVG Version: 6.00 Build 0)  -->
<!DOCTYPE svg PUBLIC "-//W3C//DTD SVG 1.1//EN" "http://www.w3.org/Graphics/SVG/1.1/DTD/svg11.dtd">
<svg version="1.1" id="Layer_1" xmlns="http://www.w3.org/2000/svg" xmlns:xlink="http://www.w3.org/1999/xlink" x="0px" y="0px"
	 viewBox="0 0 116 28" enable-background="new 0 0 116 28" xml:space="preserve">
<title>Norton</title>
<desc>Created with Sketch.</desc>
<path fill="#E9204F" d="M30.1,4.1c0,0.2,0,2.4,0,2.6c0,0.1,0,0.3-0.1,0.4c0,0.1-0.1,0.2-0.1,0.2c-0.1,0-0.1,0.1-0.2,0.1L17.8,7.3
	l0.1,17.4c0,0.1,0,0.2-0.1,0.2c0,0.1-0.1,0.1-0.2,0.1c-0.1,0-0.2,0.1-0.3,0.1c-0.1,0-0.3,0-0.5,0c-0.2,0-2.8,0-2.9,0
	c-0.1,0-0.3-0.1-0.3-0.1c-0.1,0-0.1-0.1-0.2-0.1c0-0.1-0.1-0.1-0.1-0.2V7.3H1.5c-0.1,0-0.1,0-0.2-0.1C1.2,7.2,1.2,7.1,1.1,7
	c0-0.1-0.1-0.2-0.1-0.4c0-0.1,0-2.4,0-2.6c0-0.2,0-0.4,0-0.5c0-0.1,0-0.3,0.1-0.4C1.2,3.1,1.2,3,1.3,3c0.1,0,0.1-0.1,0.2-0.1h28.2
	c0.1,0,0.1,0,0.2,0.1C29.9,3,30,3.1,30,3.2c0,0.1,0.1,0.2,0.1,0.4C30.1,3.7,30.1,3.9,30.1,4.1z"/>
<path fill="#E9204F" d="M67.2,9.8c0,0.2,0,0.3,0,0.4c0,0.1,0,0.2-0.1,0.3c0,0.1-0.1,0.1-0.1,0.2c-0.1,0-0.1,0.1-0.2,0.1h-6v5.6h5.7
	c0.1,0,0.1,0,0.2,0c0.1,0,0.1,0.1,0.1,0.1c0,0.1,0.1,0.2,0.1,0.3c0,0.1,0,0.3,0,0.4c0,0.2,0,0.3,0,0.4c0,0.1,0,0.2-0.1,0.3
	S66.6,18,66.6,18c-0.1,0-0.1,0.1-0.2,0.1h-5.7v6.8c0,0.1,0,0.1-0.1,0.2c0,0.1-0.1,0.1-0.2,0.1s-0.2,0.1-0.3,0.1c-0.1,0-0.3,0-0.5,0
	c-0.2,0-0.4,0-0.5,0c-0.1,0-0.3,0-0.3-0.1c-0.1,0-0.1-0.1-0.2-0.1c0-0.1,0-0.1,0-0.2V9.7c0-0.3,0.1-0.6,0.3-0.7
	c0.2-0.1,0.4-0.2,0.5-0.2h7.3c0.1,0,0.1,0,0.2,0.1C67,8.9,67,9,67.1,9.1c0,0.1,0.1,0.2,0.1,0.3C67.2,9.5,67.2,9.6,67.2,9.8z"/>
<path fill="#E9204F" d="M81.4,24.9c0,0.1,0,0.1,0,0.2c0,0.1-0.1,0.1-0.2,0.1c-0.1,0-0.2,0.1-0.4,0.1c-0.2,0-0.4,0-0.6,0
	c-0.2,0-0.4,0-0.5,0c-0.1,0-0.3,0-0.3-0.1c-0.1,0-0.1-0.1-0.2-0.2c0-0.1-0.1-0.2-0.1-0.3l-1.5-3.8c-0.2-0.4-0.4-0.8-0.5-1.2
	c-0.2-0.4-0.4-0.7-0.7-0.9c-0.3-0.3-0.6-0.5-0.9-0.6c-0.4-0.1-0.8-0.2-1.3-0.2h-1.5v7c0,0.1,0,0.1-0.1,0.2c0,0.1-0.1,0.1-0.2,0.1
	c-0.1,0-0.2,0.1-0.3,0.1c-0.1,0-0.3,0-0.5,0c-0.2,0-0.4,0-0.5,0c-0.1,0-0.3,0-0.3-0.1c-0.1,0-0.1-0.1-0.2-0.1c0,0,0-0.1,0-0.2V9.7
	c0-0.3,0.1-0.6,0.3-0.7c0.2-0.1,0.4-0.2,0.5-0.2h3.5c0.4,0,0.8,0,1,0c0.3,0,0.5,0,0.7,0.1c0.6,0.1,1.2,0.3,1.7,0.5
	c0.5,0.2,0.9,0.5,1.2,0.9c0.3,0.4,0.6,0.8,0.7,1.2c0.2,0.5,0.2,1,0.2,1.5c0,0.5-0.1,1-0.2,1.5s-0.4,0.8-0.6,1.1
	c-0.3,0.3-0.6,0.6-1,0.9c-0.4,0.2-0.8,0.4-1.3,0.6c0.3,0.1,0.5,0.3,0.7,0.4s0.4,0.4,0.6,0.6c0.2,0.3,0.4,0.5,0.5,0.9
	c0.2,0.3,0.3,0.7,0.5,1.1l1.5,3.6c0.1,0.3,0.2,0.5,0.2,0.6C81.3,24.7,81.4,24.8,81.4,24.9z M78.1,13.4c0-0.6-0.1-1.2-0.4-1.6
	c-0.3-0.4-0.8-0.8-1.4-1c-0.2-0.1-0.4-0.1-0.7-0.1c-0.3,0-0.6,0-1,0h-1.8v5.5h2.1c0.6,0,1.1-0.1,1.5-0.2c0.4-0.1,0.8-0.3,1-0.6
	c0.3-0.2,0.5-0.5,0.6-0.9C78,14.2,78.1,13.8,78.1,13.4z"/>
<path fill="#E9204F" d="M93.6,24.3c0,0.2,0,0.3,0,0.4c0,0.1,0,0.2-0.1,0.3c0,0.1-0.1,0.1-0.1,0.2c-0.1,0-0.1,0.1-0.2,0.1h-7.8
	c-0.2,0-0.4-0.1-0.5-0.2c-0.2-0.1-0.3-0.4-0.3-0.7V9.7c0-0.3,0.1-0.6,0.3-0.7c0.2-0.1,0.4-0.2,0.5-0.2H93c0.1,0,0.1,0,0.2,0.1
	c0.1,0,0.1,0.1,0.1,0.2c0,0.1,0.1,0.2,0.1,0.3c0,0.1,0,0.3,0,0.4c0,0.2,0,0.3,0,0.4c0,0.1,0,0.2-0.1,0.3c0,0.1-0.1,0.1-0.1,0.2
	c-0.1,0-0.1,0.1-0.2,0.1h-6.4v5.1h5.5c0.1,0,0.1,0,0.2,0.1c0.1,0,0.1,0.1,0.1,0.2s0.1,0.2,0.1,0.3c0,0.1,0,0.3,0,0.4
	c0,0.2,0,0.3,0,0.4c0,0.1,0,0.2-0.1,0.3s-0.1,0.1-0.1,0.1c-0.1,0-0.1,0-0.2,0h-5.5v5.8h6.5c0.1,0,0.1,0,0.2,0.1
	c0.1,0,0.1,0.1,0.1,0.2c0,0.1,0.1,0.2,0.1,0.3C93.6,24,93.6,24.1,93.6,24.3z"/>
<path fill="#E9204F" d="M114.9,24.9c0,0.1,0,0.1-0.1,0.2c0,0.1-0.1,0.1-0.2,0.1c-0.1,0-0.2,0.1-0.3,0.1c-0.1,0-0.3,0-0.5,0
	c-0.2,0-0.4,0-0.5,0c-0.1,0-0.3,0-0.3-0.1c-0.1,0-0.1-0.1-0.2-0.1c0,0-0.1-0.1-0.1-0.2V10.6h0l-5.8,14.3c0,0.1-0.1,0.1-0.1,0.2
	c0,0-0.1,0.1-0.2,0.1c-0.1,0-0.2,0.1-0.3,0.1c-0.1,0-0.3,0-0.4,0c-0.2,0-0.3,0-0.5,0c-0.1,0-0.2,0-0.3-0.1c-0.1,0-0.1-0.1-0.2-0.1
	c0,0-0.1-0.1-0.1-0.1l-5.5-14.3h0v14.2c0,0.1,0,0.1-0.1,0.2c0,0.1-0.1,0.1-0.2,0.1c-0.1,0-0.2,0.1-0.3,0.1c-0.1,0-0.3,0-0.5,0
	c-0.2,0-0.4,0-0.5,0c-0.1,0-0.2,0-0.3-0.1c-0.1,0-0.1-0.1-0.2-0.1c0,0,0-0.1,0-0.2v-15c0-0.4,0.1-0.6,0.3-0.8
	c0.2-0.2,0.4-0.2,0.6-0.2h1.3c0.3,0,0.5,0,0.7,0.1c0.2,0.1,0.4,0.1,0.5,0.2c0.2,0.1,0.3,0.2,0.4,0.4c0.1,0.2,0.2,0.4,0.3,0.6
	l4.7,11.8h0.1l4.9-11.8c0.1-0.3,0.2-0.5,0.3-0.6c0.1-0.2,0.2-0.3,0.4-0.4c0.1-0.1,0.3-0.2,0.4-0.2c0.2,0,0.4-0.1,0.6-0.1h1.4
	c0.1,0,0.3,0,0.4,0.1c0.1,0,0.2,0.1,0.3,0.2s0.1,0.2,0.2,0.3c0.1,0.1,0.1,0.3,0.1,0.4V24.9z"/>
<g>
	<path fill="#FFFFFF" d="M11.4,20.5c0,0.8-0.1,1.4-0.4,2c-0.3,0.6-0.7,1.1-1.2,1.5c-0.5,0.4-1.1,0.7-1.8,0.9
		c-0.7,0.2-1.5,0.3-2.3,0.3c-0.6,0-1.1,0-1.6-0.1c-0.5-0.1-0.9-0.2-1.3-0.3c-0.4-0.1-0.7-0.3-1-0.4c-0.3-0.1-0.4-0.3-0.5-0.4
		c-0.1-0.1-0.2-0.2-0.2-0.4c0-0.2-0.1-0.4-0.1-0.6c0-0.2,0-0.3,0-0.5c0-0.1,0-0.2,0.1-0.3c0-0.1,0.1-0.1,0.1-0.2s0.1,0,0.2,0
		c0.1,0,0.3,0.1,0.5,0.2c0.2,0.1,0.5,0.3,0.9,0.5C3.1,22.9,3.5,23,4,23.2s1.1,0.2,1.7,0.2c0.5,0,0.9-0.1,1.4-0.2
		c0.4-0.1,0.8-0.3,1.1-0.5c0.3-0.2,0.5-0.5,0.7-0.8c0.2-0.3,0.2-0.7,0.2-1.1c0-0.5-0.1-0.8-0.3-1.2c-0.2-0.3-0.5-0.6-0.9-0.8
		c-0.4-0.2-0.8-0.5-1.2-0.7c-0.5-0.2-0.9-0.4-1.4-0.6s-1-0.4-1.4-0.7c-0.5-0.3-0.9-0.6-1.2-0.9c-0.4-0.3-0.7-0.8-0.9-1.2
		c-0.2-0.5-0.3-1-0.3-1.7c0-0.7,0.1-1.3,0.4-1.8c0.3-0.5,0.6-1,1.1-1.3c0.5-0.4,1-0.6,1.6-0.8c0.6-0.2,1.3-0.3,2.1-0.3
		c0.4,0,0.8,0,1.1,0.1C8.1,8.9,8.4,9,8.8,9.1c0.3,0.1,0.6,0.2,0.9,0.3c0.3,0.1,0.4,0.2,0.5,0.3c0.1,0.1,0.1,0.1,0.2,0.2
		s0,0.1,0.1,0.2c0,0.1,0,0.2,0,0.3c0,0.1,0,0.2,0,0.4c0,0.1,0,0.3,0,0.4c0,0.1,0,0.2-0.1,0.3c0,0.1-0.1,0.1-0.1,0.2
		c0,0-0.1,0.1-0.2,0.1c-0.1,0-0.2-0.1-0.5-0.2c-0.2-0.1-0.5-0.2-0.8-0.4c-0.3-0.1-0.7-0.3-1.1-0.4c-0.4-0.1-0.9-0.2-1.4-0.2
		c-0.5,0-0.9,0.1-1.2,0.2c-0.4,0.1-0.6,0.3-0.9,0.5c-0.2,0.2-0.4,0.4-0.5,0.7c-0.1,0.3-0.2,0.6-0.2,0.9c0,0.4,0.1,0.8,0.3,1.2
		c0.2,0.3,0.5,0.6,0.9,0.9c0.4,0.2,0.8,0.5,1.2,0.7c0.5,0.2,0.9,0.4,1.4,0.6c0.5,0.2,1,0.4,1.4,0.7c0.5,0.3,0.9,0.5,1.2,0.9
		c0.4,0.3,0.7,0.7,0.9,1.2C11.3,19.3,11.4,19.8,11.4,20.5z"/>
	<path fill="#FFFFFF" d="M27.7,18.8v6c0,0.1,0,0.1-0.1,0.2c0,0.1-0.1,0.1-0.2,0.1c-0.1,0-0.2,0.1-0.3,0.1c-0.1,0-0.3,0-0.5,0
		c-0.2,0-0.4,0-0.5,0c-0.1,0-0.3,0-0.3-0.1c-0.1,0-0.1-0.1-0.2-0.1c0,0,0-0.1,0-0.2v-6l-4.6-9.2c-0.1-0.2-0.1-0.3-0.2-0.5
		c0-0.1,0-0.2,0.1-0.3c0.1-0.1,0.2-0.1,0.3-0.1c0.2,0,0.4,0,0.7,0c0.3,0,0.5,0,0.6,0c0.2,0,0.3,0,0.4,0.1C22.9,8.9,23,8.9,23,9
		c0,0.1,0.1,0.1,0.1,0.2l2.3,4.7c0.2,0.4,0.4,0.9,0.6,1.4c0.2,0.5,0.4,1,0.6,1.5h0c0.2-0.5,0.4-1,0.6-1.4c0.2-0.5,0.4-0.9,0.6-1.4
		l2.3-4.7c0-0.1,0.1-0.2,0.1-0.2c0-0.1,0.1-0.1,0.2-0.1c0.1,0,0.2-0.1,0.3-0.1c0.1,0,0.3,0,0.5,0c0.3,0,0.5,0,0.7,0
		c0.2,0,0.3,0.1,0.4,0.1c0.1,0.1,0.1,0.1,0.1,0.3c0,0.1-0.1,0.3-0.2,0.4L27.7,18.8z"/>
	<path fill="#FFFFFF" d="M43.6,24.2c0,0.2,0,0.3,0,0.4c0,0.1,0,0.2-0.1,0.3c0,0.1-0.1,0.1-0.1,0.2c-0.1,0-0.1,0.1-0.2,0.1h-7.2
		c-0.2,0-0.4-0.1-0.5-0.2c-0.2-0.1-0.3-0.4-0.3-0.7V9.2c0-0.1,0-0.1,0-0.2c0-0.1,0.1-0.1,0.2-0.1c0.1,0,0.2-0.1,0.3-0.1
		c0.1,0,0.3,0,0.5,0c0.2,0,0.4,0,0.5,0c0.1,0,0.3,0,0.3,0.1c0.1,0,0.1,0.1,0.2,0.1c0,0.1,0.1,0.1,0.1,0.2v14.1h5.9
		c0.1,0,0.1,0,0.2,0.1c0.1,0,0.1,0.1,0.1,0.2s0.1,0.2,0.1,0.3C43.6,23.9,43.6,24.1,43.6,24.2z"/>
	<path fill="#FFFFFF" d="M55.1,24.3c0,0.2,0,0.3,0,0.4c0,0.1,0,0.2-0.1,0.3c0,0.1-0.1,0.1-0.1,0.2c-0.1,0-0.1,0.1-0.2,0.1h-7.8
		c-0.2,0-0.4-0.1-0.5-0.2c-0.2-0.1-0.3-0.4-0.3-0.7V9.7c0-0.3,0.1-0.6,0.3-0.7c0.2-0.1,0.4-0.2,0.5-0.2h7.7c0.1,0,0.1,0,0.2,0.1
		c0.1,0,0.1,0.1,0.1,0.2c0,0.1,0.1,0.2,0.1,0.3c0,0.1,0,0.3,0,0.4c0,0.2,0,0.3,0,0.4c0,0.1,0,0.2-0.1,0.3c0,0.1-0.1,0.1-0.1,0.2
		c-0.1,0-0.1,0.1-0.2,0.1h-6.4v5.1h5.5c0.1,0,0.1,0,0.2,0.1c0.1,0,0.1,0.1,0.1,0.2s0.1,0.2,0.1,0.3c0,0.1,0,0.3,0,0.4
		c0,0.2,0,0.3,0,0.4c0,0.1,0,0.2-0.1,0.3s-0.1,0.1-0.1,0.1c-0.1,0-0.1,0-0.2,0h-5.5v5.8h6.5c0.1,0,0.1,0,0.2,0.1
		c0.1,0,0.1,0.1,0.1,0.2c0,0.1,0.1,0.2,0.1,0.3C55,24,55.1,24.1,55.1,24.3z"/>
	<g>
		<path fill="#FFFFFF" d="M35.7,7.1c0,0,0,0.1,0,0.1c0,0,0,0.1,0,0.1c0,0,0,0,0,0c0,0,0,0-0.1,0h-2.2c-0.1,0-0.1,0-0.2-0.1
			c0,0-0.1-0.1-0.1-0.2V3c0-0.1,0-0.2,0.1-0.2c0,0,0.1-0.1,0.2-0.1h2.2c0,0,0,0,0.1,0c0,0,0,0,0,0c0,0,0,0,0,0.1c0,0,0,0.1,0,0.1
			c0,0,0,0.1,0,0.1c0,0,0,0.1,0,0.1c0,0,0,0,0,0c0,0,0,0-0.1,0h-1.8v1.4h1.6c0,0,0,0,0.1,0c0,0,0,0,0,0c0,0,0,0,0,0.1
			c0,0,0,0.1,0,0.1c0,0,0,0.1,0,0.1c0,0,0,0.1,0,0.1c0,0,0,0,0,0c0,0,0,0-0.1,0h-1.6v1.6h1.8c0,0,0,0,0.1,0c0,0,0,0,0,0
			c0,0,0,0,0,0.1C35.7,7,35.7,7,35.7,7.1z"/>
		<path fill="#FFFFFF" d="M41.4,7.1c0,0.1,0,0.1,0.1,0.1c0,0,0,0.1,0,0.1s-0.1,0-0.1,0c0,0-0.1,0-0.2,0c-0.1,0-0.1,0-0.2,0
			c0,0-0.1,0-0.1,0c0,0,0,0-0.1,0c0,0,0,0,0-0.1l-1-1.8l-1,1.8c0,0,0,0,0,0.1c0,0,0,0-0.1,0c0,0-0.1,0-0.1,0c0,0-0.1,0-0.2,0
			c-0.1,0-0.1,0-0.2,0s-0.1,0-0.1,0c0,0,0,0,0-0.1c0,0,0-0.1,0.1-0.1L39.3,5l-1.2-2C38,3,38,2.9,38,2.9c0,0,0-0.1,0-0.1
			c0,0,0.1,0,0.1,0c0,0,0.1,0,0.2,0c0.1,0,0.1,0,0.2,0s0.1,0,0.1,0c0,0,0,0,0.1,0c0,0,0,0,0,0.1l1,1.7l1-1.7c0,0,0,0,0-0.1
			c0,0,0,0,0.1,0c0,0,0.1,0,0.1,0c0,0,0.1,0,0.2,0c0.1,0,0.1,0,0.2,0c0,0,0.1,0,0.1,0c0,0,0,0,0,0.1c0,0,0,0.1-0.1,0.1l-1.2,2
			L41.4,7.1z"/>
		<path fill="#FFFFFF" d="M46.7,4.1c0,0.2,0,0.4-0.1,0.6s-0.2,0.3-0.3,0.5S46,5.4,45.8,5.5c-0.2,0.1-0.5,0.1-0.7,0.1h-0.5v1.6
			c0,0,0,0,0,0c0,0,0,0-0.1,0c0,0-0.1,0-0.1,0c0,0-0.1,0-0.1,0s-0.1,0-0.1,0c0,0-0.1,0-0.1,0c0,0,0,0-0.1,0c0,0,0,0,0,0V3.1
			c0-0.1,0-0.2,0.1-0.2s0.1-0.1,0.2-0.1h1c0.1,0,0.2,0,0.3,0c0.1,0,0.2,0,0.3,0.1c0.1,0,0.3,0.1,0.4,0.2c0.1,0.1,0.2,0.2,0.3,0.3
			c0.1,0.1,0.2,0.2,0.2,0.4C46.7,3.8,46.7,4,46.7,4.1z M46.1,4.2c0-0.2,0-0.3-0.1-0.5c-0.1-0.1-0.2-0.2-0.3-0.3s-0.2-0.1-0.3-0.1
			c-0.1,0-0.2,0-0.3,0h-0.6v1.8h0.6c0.2,0,0.3,0,0.5-0.1c0.1,0,0.2-0.1,0.3-0.2C45.9,4.8,46,4.7,46,4.6C46.1,4.4,46.1,4.3,46.1,4.2z
			"/>
		<path fill="#FFFFFF" d="M52.5,7.2C52.5,7.3,52.5,7.3,52.5,7.2C52.4,7.3,52.4,7.3,52.5,7.2c-0.1,0.1-0.1,0.1-0.2,0.1
			c0,0-0.1,0-0.2,0c-0.1,0-0.1,0-0.2,0c0,0-0.1,0-0.1,0c0,0,0,0-0.1,0s0,0,0-0.1l-0.4-1.1c-0.1-0.1-0.1-0.2-0.2-0.3
			c-0.1-0.1-0.1-0.2-0.2-0.3c-0.1-0.1-0.2-0.1-0.3-0.2c-0.1,0-0.2-0.1-0.4-0.1H50v1.9c0,0,0,0,0,0c0,0,0,0-0.1,0c0,0-0.1,0-0.1,0
			c0,0-0.1,0-0.1,0s-0.1,0-0.1,0c0,0-0.1,0-0.1,0c0,0,0,0-0.1,0c0,0,0,0,0,0V3c0-0.1,0-0.2,0.1-0.2c0,0,0.1-0.1,0.2-0.1h1
			c0.1,0,0.2,0,0.3,0c0.1,0,0.1,0,0.2,0c0.2,0,0.3,0.1,0.5,0.1c0.1,0.1,0.3,0.1,0.3,0.2c0.1,0.1,0.2,0.2,0.2,0.3
			c0,0.1,0.1,0.3,0.1,0.4c0,0.2,0,0.3-0.1,0.4c0,0.1-0.1,0.2-0.2,0.3c-0.1,0.1-0.2,0.2-0.3,0.2c-0.1,0.1-0.2,0.1-0.4,0.2
			c0.1,0,0.1,0.1,0.2,0.1c0.1,0.1,0.1,0.1,0.2,0.2c0.1,0.1,0.1,0.2,0.2,0.2c0,0.1,0.1,0.2,0.1,0.3l0.4,1C52.4,7.1,52.4,7.1,52.5,7.2
			C52.5,7.2,52.5,7.2,52.5,7.2z M51.5,4.1c0-0.2,0-0.3-0.1-0.5c-0.1-0.1-0.2-0.2-0.4-0.3c-0.1,0-0.1,0-0.2,0c-0.1,0-0.2,0-0.3,0H50
			v1.5h0.6c0.2,0,0.3,0,0.4-0.1c0.1,0,0.2-0.1,0.3-0.2c0.1-0.1,0.1-0.2,0.2-0.2C51.5,4.3,51.5,4.2,51.5,4.1z"/>
		<path fill="#FFFFFF" d="M57.6,7.1c0,0,0,0.1,0,0.1c0,0,0,0.1,0,0.1c0,0,0,0,0,0c0,0,0,0-0.1,0h-2.2c-0.1,0-0.1,0-0.2-0.1
			c0,0-0.1-0.1-0.1-0.2V3c0-0.1,0-0.2,0.1-0.2c0,0,0.1-0.1,0.2-0.1h2.2c0,0,0,0,0.1,0c0,0,0,0,0,0c0,0,0,0,0,0.1c0,0,0,0.1,0,0.1
			c0,0,0,0.1,0,0.1c0,0,0,0.1,0,0.1c0,0,0,0,0,0c0,0,0,0-0.1,0h-1.8v1.4h1.6c0,0,0,0,0.1,0c0,0,0,0,0,0c0,0,0,0,0,0.1
			c0,0,0,0.1,0,0.1c0,0,0,0.1,0,0.1c0,0,0,0.1,0,0.1c0,0,0,0,0,0c0,0,0,0-0.1,0h-1.6v1.6h1.8c0,0,0,0,0.1,0c0,0,0,0,0,0
			c0,0,0,0,0,0.1C57.6,7,57.6,7,57.6,7.1z"/>
		<path fill="#FFFFFF" d="M62.8,6.1c0,0.2,0,0.4-0.1,0.6c-0.1,0.2-0.2,0.3-0.3,0.4c-0.1,0.1-0.3,0.2-0.5,0.3
			c-0.2,0.1-0.4,0.1-0.6,0.1c-0.2,0-0.3,0-0.4,0c-0.1,0-0.3-0.1-0.4-0.1c-0.1,0-0.2-0.1-0.3-0.1c-0.1,0-0.1-0.1-0.1-0.1
			c0,0,0-0.1-0.1-0.1c0,0,0-0.1,0-0.2c0-0.1,0-0.1,0-0.1c0,0,0-0.1,0-0.1c0,0,0,0,0,0c0,0,0,0,0.1,0c0,0,0.1,0,0.1,0.1
			c0.1,0,0.1,0.1,0.2,0.1c0.1,0,0.2,0.1,0.3,0.1c0.1,0,0.3,0.1,0.5,0.1c0.1,0,0.3,0,0.4-0.1c0.1,0,0.2-0.1,0.3-0.1
			C62,6.6,62,6.5,62.1,6.5c0-0.1,0.1-0.2,0.1-0.3c0-0.1,0-0.2-0.1-0.3s-0.1-0.2-0.2-0.2c-0.1-0.1-0.2-0.1-0.3-0.2s-0.3-0.1-0.4-0.2
			S60.8,5.1,60.7,5c-0.1-0.1-0.2-0.2-0.3-0.3c-0.1-0.1-0.2-0.2-0.2-0.3C60.1,4.3,60,4.1,60,3.9c0-0.2,0-0.4,0.1-0.5
			c0.1-0.1,0.2-0.3,0.3-0.4c0.1-0.1,0.3-0.2,0.4-0.2c0.2-0.1,0.4-0.1,0.6-0.1c0.1,0,0.2,0,0.3,0c0.1,0,0.2,0,0.3,0.1
			c0.1,0,0.2,0.1,0.2,0.1C62.4,3,62.4,3,62.4,3c0,0,0,0,0,0.1c0,0,0,0,0,0c0,0,0,0,0,0.1c0,0,0,0.1,0,0.1c0,0,0,0.1,0,0.1
			c0,0,0,0.1,0,0.1c0,0,0,0,0,0c0,0,0,0,0,0c0,0-0.1,0-0.1,0c-0.1,0-0.1-0.1-0.2-0.1c-0.1,0-0.2-0.1-0.3-0.1c-0.1,0-0.2-0.1-0.4-0.1
			c-0.1,0-0.2,0-0.3,0.1c-0.1,0-0.2,0.1-0.2,0.1c-0.1,0.1-0.1,0.1-0.1,0.2c0,0.1,0,0.2,0,0.2c0,0.1,0,0.2,0.1,0.3
			c0.1,0.1,0.1,0.2,0.2,0.2c0.1,0.1,0.2,0.1,0.3,0.2c0.1,0.1,0.3,0.1,0.4,0.2C61.8,4.9,62,4.9,62.1,5c0.1,0.1,0.2,0.2,0.3,0.3
			c0.1,0.1,0.2,0.2,0.2,0.3C62.7,5.7,62.8,5.9,62.8,6.1z"/>
		<path fill="#FFFFFF" d="M67.8,6.1c0,0.2,0,0.4-0.1,0.6c-0.1,0.2-0.2,0.3-0.3,0.4c-0.1,0.1-0.3,0.2-0.5,0.3
			c-0.2,0.1-0.4,0.1-0.6,0.1c-0.2,0-0.3,0-0.4,0c-0.1,0-0.3-0.1-0.4-0.1c-0.1,0-0.2-0.1-0.3-0.1c-0.1,0-0.1-0.1-0.1-0.1S65,7,65,6.9
			c0,0,0-0.1,0-0.2c0-0.1,0-0.1,0-0.1c0,0,0-0.1,0-0.1c0,0,0,0,0,0c0,0,0,0,0.1,0c0,0,0.1,0,0.1,0.1c0.1,0,0.1,0.1,0.2,0.1
			s0.2,0.1,0.3,0.1c0.1,0,0.3,0.1,0.5,0.1c0.1,0,0.3,0,0.4-0.1s0.2-0.1,0.3-0.1c0.1-0.1,0.1-0.1,0.2-0.2c0-0.1,0.1-0.2,0.1-0.3
			c0-0.1,0-0.2-0.1-0.3S67,5.6,66.9,5.6c-0.1-0.1-0.2-0.1-0.3-0.2c-0.1-0.1-0.3-0.1-0.4-0.2S65.9,5.1,65.7,5
			c-0.1-0.1-0.2-0.2-0.3-0.3c-0.1-0.1-0.2-0.2-0.2-0.3c-0.1-0.1-0.1-0.3-0.1-0.5c0-0.2,0-0.4,0.1-0.5c0.1-0.1,0.2-0.3,0.3-0.4
			c0.1-0.1,0.3-0.2,0.4-0.2c0.2-0.1,0.4-0.1,0.6-0.1c0.1,0,0.2,0,0.3,0s0.2,0,0.3,0.1c0.1,0,0.2,0.1,0.2,0.1C67.4,3,67.5,3,67.5,3
			c0,0,0,0,0,0.1c0,0,0,0,0,0c0,0,0,0,0,0.1c0,0,0,0.1,0,0.1c0,0,0,0.1,0,0.1c0,0,0,0.1,0,0.1c0,0,0,0,0,0c0,0,0,0,0,0
			c0,0-0.1,0-0.1,0c-0.1,0-0.1-0.1-0.2-0.1c-0.1,0-0.2-0.1-0.3-0.1c-0.1,0-0.2-0.1-0.4-0.1c-0.1,0-0.2,0-0.3,0.1
			c-0.1,0-0.2,0.1-0.2,0.1c-0.1,0.1-0.1,0.1-0.1,0.2c0,0.1,0,0.2,0,0.2c0,0.1,0,0.2,0.1,0.3c0.1,0.1,0.1,0.2,0.2,0.2
			c0.1,0.1,0.2,0.1,0.3,0.2c0.1,0.1,0.3,0.1,0.4,0.2C66.9,4.9,67,4.9,67.2,5c0.1,0.1,0.2,0.2,0.3,0.3c0.1,0.1,0.2,0.2,0.2,0.3
			S67.8,5.9,67.8,6.1z"/>
		<path fill="#FFFFFF" d="M75.2,5.6v1.7c0,0,0,0,0,0c0,0,0,0-0.1,0c0,0-0.1,0-0.1,0c0,0-0.1,0-0.1,0c-0.1,0-0.1,0-0.1,0
			c0,0-0.1,0-0.1,0c0,0,0,0-0.1,0c0,0,0,0,0,0V5.6L73.3,3c0-0.1,0-0.1,0-0.1c0,0,0-0.1,0-0.1s0.1,0,0.1,0c0,0,0.1,0,0.2,0
			c0.1,0,0.1,0,0.2,0c0,0,0.1,0,0.1,0c0,0,0,0,0.1,0c0,0,0,0,0,0.1l0.6,1.3c0.1,0.1,0.1,0.3,0.2,0.4c0.1,0.1,0.1,0.3,0.2,0.4h0
			C75,4.9,75,4.7,75.1,4.6c0.1-0.1,0.1-0.3,0.2-0.4l0.6-1.3c0,0,0,0,0-0.1c0,0,0,0,0.1,0c0,0,0.1,0,0.1,0c0,0,0.1,0,0.2,0
			c0.1,0,0.2,0,0.2,0c0,0,0.1,0,0.1,0c0,0,0,0,0,0.1s0,0.1,0,0.1L75.2,5.6z"/>
		<path fill="#FFFFFF" d="M82.9,5c0,0.4,0,0.7-0.1,1c-0.1,0.3-0.2,0.5-0.4,0.8c-0.2,0.2-0.4,0.4-0.7,0.5c-0.3,0.1-0.6,0.2-0.9,0.2
			c-0.3,0-0.7-0.1-0.9-0.2c-0.3-0.1-0.5-0.2-0.6-0.4c-0.2-0.2-0.3-0.4-0.4-0.7c-0.1-0.3-0.1-0.6-0.1-1c0-0.4,0-0.7,0.1-1
			c0.1-0.3,0.2-0.5,0.4-0.7c0.2-0.2,0.4-0.4,0.7-0.5c0.3-0.1,0.6-0.2,0.9-0.2c0.3,0,0.6,0.1,0.9,0.2C82,3,82.2,3.1,82.4,3.3
			c0.2,0.2,0.3,0.4,0.4,0.7C82.8,4.3,82.9,4.7,82.9,5z M82.2,5.1c0-0.3,0-0.5-0.1-0.7c0-0.2-0.1-0.4-0.2-0.6
			c-0.1-0.2-0.3-0.3-0.4-0.4s-0.4-0.1-0.7-0.1s-0.5,0-0.7,0.1c-0.2,0.1-0.3,0.2-0.4,0.4c-0.1,0.2-0.2,0.4-0.2,0.6s-0.1,0.4-0.1,0.7
			c0,0.3,0,0.5,0.1,0.7s0.1,0.4,0.2,0.6c0.1,0.2,0.3,0.3,0.4,0.4c0.2,0.1,0.4,0.1,0.7,0.1c0.3,0,0.5,0,0.7-0.1
			c0.2-0.1,0.3-0.2,0.4-0.4C82,6.2,82.1,6,82.1,5.8S82.2,5.3,82.2,5.1z"/>
		<path fill="#FFFFFF" d="M89,5.7c0,0.3,0,0.5-0.1,0.7c-0.1,0.2-0.2,0.4-0.4,0.5c-0.2,0.1-0.3,0.3-0.6,0.3s-0.5,0.1-0.8,0.1
			c-0.3,0-0.5,0-0.7-0.1C86.3,7.2,86.1,7.1,86,7s-0.3-0.3-0.3-0.5c-0.1-0.2-0.1-0.5-0.1-0.7V2.9c0,0,0,0,0,0c0,0,0,0,0.1,0
			c0,0,0.1,0,0.1,0c0,0,0.1,0,0.2,0c0.1,0,0.1,0,0.1,0c0,0,0.1,0,0.1,0c0,0,0,0,0,0c0,0,0,0,0,0v2.7c0,0.2,0,0.4,0.1,0.6
			c0.1,0.2,0.1,0.3,0.2,0.4c0.1,0.1,0.2,0.2,0.4,0.2s0.3,0.1,0.5,0.1c0.2,0,0.3,0,0.5-0.1c0.1-0.1,0.3-0.1,0.4-0.2
			c0.1-0.1,0.2-0.2,0.2-0.4c0.1-0.2,0.1-0.3,0.1-0.5V2.9c0,0,0,0,0,0c0,0,0,0,0.1,0c0,0,0.1,0,0.1,0c0,0,0.1,0,0.1,0
			c0.1,0,0.1,0,0.1,0c0,0,0.1,0,0.1,0c0,0,0,0,0.1,0c0,0,0,0,0,0V5.7z"/>
		<path fill="#FFFFFF" d="M95,7.2C95,7.3,95,7.3,95,7.2C95,7.3,95,7.3,95,7.2c-0.1,0.1-0.1,0.1-0.2,0.1s-0.1,0-0.2,0
			c-0.1,0-0.1,0-0.2,0c0,0-0.1,0-0.1,0c0,0,0,0-0.1,0s0,0,0-0.1l-0.4-1.1c-0.1-0.1-0.1-0.2-0.2-0.3c-0.1-0.1-0.1-0.2-0.2-0.3
			c-0.1-0.1-0.2-0.1-0.3-0.2c-0.1,0-0.2-0.1-0.4-0.1h-0.4v1.9c0,0,0,0,0,0c0,0,0,0-0.1,0c0,0-0.1,0-0.1,0c0,0-0.1,0-0.1,0
			s-0.1,0-0.1,0c0,0-0.1,0-0.1,0c0,0,0,0-0.1,0c0,0,0,0,0,0V3c0-0.1,0-0.2,0.1-0.2c0,0,0.1-0.1,0.2-0.1h1c0.1,0,0.2,0,0.3,0
			c0.1,0,0.1,0,0.2,0c0.2,0,0.3,0.1,0.5,0.1c0.1,0.1,0.3,0.1,0.3,0.2c0.1,0.1,0.2,0.2,0.2,0.3s0.1,0.3,0.1,0.4c0,0.2,0,0.3-0.1,0.4
			c0,0.1-0.1,0.2-0.2,0.3c-0.1,0.1-0.2,0.2-0.3,0.2S94,5.1,93.8,5.1c0.1,0,0.1,0.1,0.2,0.1c0.1,0.1,0.1,0.1,0.2,0.2
			c0.1,0.1,0.1,0.2,0.2,0.2c0,0.1,0.1,0.2,0.1,0.3l0.4,1C94.9,7.1,95,7.1,95,7.2C95,7.2,95,7.2,95,7.2z M94.1,4.1
			c0-0.2,0-0.3-0.1-0.5c-0.1-0.1-0.2-0.2-0.4-0.3c-0.1,0-0.1,0-0.2,0c-0.1,0-0.2,0-0.3,0h-0.5v1.5h0.6c0.2,0,0.3,0,0.4-0.1
			c0.1,0,0.2-0.1,0.3-0.2C93.9,4.5,94,4.5,94,4.4C94,4.3,94.1,4.2,94.1,4.1z"/>
		<path fill="#FFFFFF" d="M100.1,6.1c0,0.2,0,0.4-0.1,0.6c-0.1,0.2-0.2,0.3-0.3,0.4c-0.1,0.1-0.3,0.2-0.5,0.3
			c-0.2,0.1-0.4,0.1-0.6,0.1c-0.2,0-0.3,0-0.4,0c-0.1,0-0.3-0.1-0.4-0.1c-0.1,0-0.2-0.1-0.3-0.1c-0.1,0-0.1-0.1-0.1-0.1
			s0-0.1-0.1-0.1c0,0,0-0.1,0-0.2c0-0.1,0-0.1,0-0.1c0,0,0-0.1,0-0.1c0,0,0,0,0,0c0,0,0,0,0.1,0c0,0,0.1,0,0.1,0.1
			c0.1,0,0.1,0.1,0.2,0.1s0.2,0.1,0.3,0.1c0.1,0,0.3,0.1,0.5,0.1c0.1,0,0.3,0,0.4-0.1c0.1,0,0.2-0.1,0.3-0.1
			c0.1-0.1,0.1-0.1,0.2-0.2c0-0.1,0.1-0.2,0.1-0.3c0-0.1,0-0.2-0.1-0.3c-0.1-0.1-0.1-0.2-0.2-0.2c-0.1-0.1-0.2-0.1-0.3-0.2
			c-0.1-0.1-0.3-0.1-0.4-0.2S98.1,5.1,98,5c-0.1-0.1-0.2-0.2-0.3-0.3c-0.1-0.1-0.2-0.2-0.2-0.3c-0.1-0.1-0.1-0.3-0.1-0.5
			c0-0.2,0-0.4,0.1-0.5c0.1-0.1,0.2-0.3,0.3-0.4c0.1-0.1,0.3-0.2,0.4-0.2c0.2-0.1,0.4-0.1,0.6-0.1c0.1,0,0.2,0,0.3,0s0.2,0,0.3,0.1
			c0.1,0,0.2,0.1,0.2,0.1C99.6,3,99.7,3,99.7,3c0,0,0,0,0,0.1c0,0,0,0,0,0c0,0,0,0,0,0.1c0,0,0,0.1,0,0.1c0,0,0,0.1,0,0.1
			c0,0,0,0.1,0,0.1c0,0,0,0,0,0c0,0,0,0,0,0c0,0-0.1,0-0.1,0c-0.1,0-0.1-0.1-0.2-0.1c-0.1,0-0.2-0.1-0.3-0.1c-0.1,0-0.2-0.1-0.4-0.1
			c-0.1,0-0.2,0-0.3,0.1c-0.1,0-0.2,0.1-0.2,0.1C98.1,3.5,98,3.5,98,3.6c0,0.1,0,0.2,0,0.2c0,0.1,0,0.2,0.1,0.3
			c0.1,0.1,0.1,0.2,0.2,0.2c0.1,0.1,0.2,0.1,0.3,0.2c0.1,0.1,0.3,0.1,0.4,0.2c0.1,0.1,0.3,0.1,0.4,0.2c0.1,0.1,0.2,0.2,0.3,0.3
			c0.1,0.1,0.2,0.2,0.2,0.3S100.1,5.9,100.1,6.1z"/>
		<path fill="#FFFFFF" d="M105.2,7.1c0,0,0,0.1,0,0.1s0,0.1,0,0.1c0,0,0,0,0,0c0,0,0,0-0.1,0h-2.2c-0.1,0-0.1,0-0.2-0.1
			c0,0-0.1-0.1-0.1-0.2V3c0-0.1,0-0.2,0.1-0.2c0,0,0.1-0.1,0.2-0.1h2.2c0,0,0,0,0.1,0c0,0,0,0,0,0c0,0,0,0,0,0.1c0,0,0,0.1,0,0.1
			c0,0,0,0.1,0,0.1c0,0,0,0.1,0,0.1c0,0,0,0,0,0c0,0,0,0-0.1,0h-1.8v1.4h1.6c0,0,0,0,0.1,0c0,0,0,0,0,0c0,0,0,0,0,0.1s0,0.1,0,0.1
			c0,0,0,0.1,0,0.1s0,0.1,0,0.1c0,0,0,0,0,0c0,0,0,0-0.1,0h-1.6v1.6h1.8c0,0,0,0,0.1,0c0,0,0,0,0,0s0,0,0,0.1
			C105.2,7,105.2,7,105.2,7.1z"/>
		<path fill="#FFFFFF" d="M110.3,7.1c0,0,0,0.1,0,0.1c0,0,0,0.1,0,0.1c0,0,0,0,0,0c0,0,0,0-0.1,0h-2.1c-0.1,0-0.1,0-0.2-0.1
			c0,0-0.1-0.1-0.1-0.2V2.9c0,0,0,0,0,0c0,0,0,0,0.1,0c0,0,0.1,0,0.1,0s0.1,0,0.1,0c0.1,0,0.1,0,0.1,0s0.1,0,0.1,0c0,0,0,0,0.1,0
			c0,0,0,0,0,0v3.9h1.7c0,0,0,0,0.1,0c0,0,0,0,0,0c0,0,0,0,0,0.1C110.3,7,110.3,7,110.3,7.1z"/>
		<path fill="#FFFFFF" d="M115.1,3.1c0,0,0,0.1,0,0.1c0,0,0,0.1,0,0.1c0,0,0,0,0,0c0,0,0,0,0,0h-1.7v1.5h1.6c0,0,0,0,0,0
			c0,0,0,0,0,0c0,0,0,0,0,0.1c0,0,0,0.1,0,0.1c0,0,0,0.1,0,0.1c0,0,0,0.1,0,0.1c0,0,0,0,0,0c0,0,0,0,0,0h-1.6v1.9c0,0,0,0,0,0
			c0,0,0,0-0.1,0c0,0-0.1,0-0.1,0s-0.1,0-0.2,0c-0.1,0-0.1,0-0.1,0s-0.1,0-0.1,0c0,0,0,0-0.1,0c0,0,0,0,0,0V3c0-0.1,0-0.2,0.1-0.2
			c0,0,0.1-0.1,0.2-0.1h2.1c0,0,0,0,0,0c0,0,0,0,0,0c0,0,0,0,0,0.1C115.1,3,115.1,3,115.1,3.1z"/>
	</g>
</g>
</svg>
