<?xml version="1.0" encoding="utf-8"?>
<!-- Generator: Adobe Illustrator 18.0.0, SVG Export Plug-In . SVG Version: 6.00 Build 0)  -->
<!DOCTYPE svg PUBLIC "-//W3C//DTD SVG 1.1//EN" "http://www.w3.org/Graphics/SVG/1.1/DTD/svg11.dtd">
<svg version="1.1" id="Layer_1" xmlns="http://www.w3.org/2000/svg" xmlns:xlink="http://www.w3.org/1999/xlink" x="0px" y="0px"
	 viewBox="0 0 119 32" enable-background="new 0 0 119 32" xml:space="preserve">
<title>Vorbes</title>
<desc>Created with Sketch.</desc>
<title>Norton</title>
<desc>Created with Sketch.</desc>
<path fill="#E9204F" d="M31.6,6c0,0.2,0,2.5,0,2.6c0,0.1,0,0.3-0.1,0.4c0,0.1-0.1,0.2-0.1,0.2c-0.1,0-0.1,0.1-0.2,0.1L19.1,9.3
	l0.1,17.6c0,0.1,0,0.2-0.1,0.2c0,0.1-0.1,0.1-0.2,0.2c-0.1,0-0.2,0.1-0.3,0.1c-0.1,0-0.3,0-0.5,0c-0.2,0-2.8,0-2.9,0
	c-0.1,0-0.3-0.1-0.3-0.1c-0.1,0-0.1-0.1-0.2-0.2c0-0.1-0.1-0.1-0.1-0.2V9.3h-12c-0.1,0-0.1,0-0.2-0.1C2.3,9.1,2.2,9.1,2.2,9
	c0-0.1-0.1-0.2-0.1-0.4c0-0.1,0-2.4,0-2.6c0-0.2,0-0.4,0-0.5c0-0.2,0-0.3,0.1-0.4c0-0.1,0.1-0.2,0.1-0.2c0.1,0,0.1-0.1,0.2-0.1h28.6
	c0.1,0,0.1,0,0.2,0.1c0.1,0,0.1,0.1,0.1,0.2c0,0.1,0.1,0.2,0.1,0.4C31.6,5.6,31.6,5.8,31.6,6z"/>
<path fill="#E9204F" d="M69.2,11.8c0,0.2,0,0.3,0,0.4c0,0.1,0,0.2-0.1,0.3c0,0.1-0.1,0.1-0.1,0.2c-0.1,0-0.1,0.1-0.2,0.1h-6.1v5.6
	h5.7c0.1,0,0.1,0,0.2,0c0.1,0,0.1,0.1,0.1,0.1c0,0.1,0.1,0.2,0.1,0.3c0,0.1,0,0.3,0,0.4c0,0.2,0,0.3,0,0.4c0,0.1,0,0.2-0.1,0.3
	c0,0.1-0.1,0.1-0.1,0.2c-0.1,0-0.1,0.1-0.2,0.1h-5.7v6.9c0,0.1,0,0.1-0.1,0.2c0,0.1-0.1,0.1-0.2,0.1c-0.1,0-0.2,0.1-0.3,0.1
	c-0.1,0-0.3,0-0.5,0c-0.2,0-0.4,0-0.5,0c-0.1,0-0.3,0-0.3-0.1c-0.1,0-0.1-0.1-0.2-0.1c0-0.1-0.1-0.1-0.1-0.2V11.8
	c0-0.3,0.1-0.6,0.3-0.7c0.2-0.1,0.4-0.2,0.6-0.2h7.4c0.1,0,0.1,0,0.2,0.1c0.1,0,0.1,0.1,0.1,0.2c0,0.1,0.1,0.2,0.1,0.3
	C69.1,11.5,69.2,11.6,69.2,11.8z"/>
<path fill="#E9204F" d="M83.5,27.1c0,0.1,0,0.1,0,0.2c0,0.1-0.1,0.1-0.2,0.1c-0.1,0-0.2,0.1-0.4,0.1c-0.2,0-0.4,0-0.6,0
	c-0.2,0-0.4,0-0.5,0c-0.1,0-0.3,0-0.3-0.1c-0.1,0-0.2-0.1-0.2-0.2c0-0.1-0.1-0.2-0.1-0.3l-1.5-3.9c-0.2-0.4-0.4-0.9-0.6-1.2
	c-0.2-0.4-0.4-0.7-0.7-1c-0.3-0.3-0.6-0.5-0.9-0.6c-0.4-0.1-0.8-0.2-1.3-0.2h-1.5v7c0,0.1,0,0.1-0.1,0.2c0,0.1-0.1,0.1-0.2,0.1
	c-0.1,0-0.2,0.1-0.3,0.1s-0.3,0-0.5,0c-0.2,0-0.4,0-0.5,0c-0.1,0-0.3,0-0.3-0.1c-0.1,0-0.1-0.1-0.2-0.1c0-0.1-0.1-0.1-0.1-0.2V11.8
	c0-0.3,0.1-0.6,0.3-0.7c0.2-0.1,0.4-0.2,0.6-0.2h3.5c0.4,0,0.8,0,1,0c0.3,0,0.5,0,0.7,0.1c0.6,0.1,1.2,0.3,1.7,0.5s0.9,0.5,1.2,0.9
	c0.3,0.4,0.6,0.8,0.7,1.3c0.2,0.5,0.2,1,0.2,1.6c0,0.6-0.1,1.1-0.2,1.5c-0.1,0.4-0.4,0.8-0.6,1.2c-0.3,0.3-0.6,0.6-1,0.9
	c-0.4,0.2-0.8,0.5-1.3,0.6c0.3,0.1,0.5,0.3,0.7,0.5s0.4,0.4,0.6,0.7c0.2,0.3,0.4,0.6,0.5,0.9c0.2,0.3,0.3,0.7,0.5,1.1l1.5,3.6
	c0.1,0.3,0.2,0.5,0.2,0.6C83.5,26.9,83.5,27,83.5,27.1z M80.2,15.5c0-0.6-0.1-1.2-0.4-1.6c-0.3-0.4-0.8-0.8-1.5-1
	c-0.2-0.1-0.5-0.1-0.7-0.1c-0.3,0-0.6,0-1.1,0h-1.9v5.6h2.1c0.6,0,1.1-0.1,1.5-0.2c0.4-0.1,0.8-0.3,1.1-0.6c0.3-0.3,0.5-0.5,0.6-0.9
	C80.2,16.2,80.2,15.9,80.2,15.5z"/>
<path fill="#E9204F" d="M95.9,26.5c0,0.2,0,0.3,0,0.4c0,0.1,0,0.2-0.1,0.3c0,0.1-0.1,0.1-0.1,0.2c-0.1,0-0.1,0.1-0.2,0.1h-7.9
	c-0.2,0-0.4-0.1-0.6-0.2c-0.2-0.1-0.3-0.4-0.3-0.7V11.8c0-0.3,0.1-0.6,0.3-0.7c0.2-0.1,0.4-0.2,0.6-0.2h7.9c0.1,0,0.1,0,0.2,0.1
	c0.1,0,0.1,0.1,0.1,0.2c0,0.1,0.1,0.2,0.1,0.3c0,0.1,0,0.3,0,0.4c0,0.2,0,0.3,0,0.4c0,0.1,0,0.2-0.1,0.3c0,0.1-0.1,0.1-0.1,0.2
	c-0.1,0-0.1,0.1-0.2,0.1h-6.5v5.2h5.6c0.1,0,0.1,0,0.2,0.1c0.1,0,0.1,0.1,0.1,0.2s0.1,0.2,0.1,0.3c0,0.1,0,0.3,0,0.4
	c0,0.2,0,0.3,0,0.4c0,0.1,0,0.2-0.1,0.3s-0.1,0.1-0.1,0.1c-0.1,0-0.1,0-0.2,0h-5.6v5.9h6.6c0.1,0,0.1,0,0.2,0.1
	c0.1,0,0.1,0.1,0.1,0.2c0,0.1,0.1,0.2,0.1,0.3C95.9,26.2,95.9,26.3,95.9,26.5z"/>
<path fill="#E9204F" d="M117.5,27.1c0,0.1,0,0.1-0.1,0.2c0,0.1-0.1,0.1-0.2,0.1c-0.1,0-0.2,0.1-0.3,0.1s-0.3,0-0.5,0
	c-0.2,0-0.4,0-0.5,0c-0.1,0-0.3,0-0.3-0.1c-0.1,0-0.1-0.1-0.2-0.1c0-0.1-0.1-0.1-0.1-0.2V12.7h0l-5.8,14.5c0,0.1-0.1,0.1-0.1,0.2
	c0,0-0.1,0.1-0.2,0.1c-0.1,0-0.2,0.1-0.3,0.1c-0.1,0-0.3,0-0.4,0c-0.2,0-0.3,0-0.5,0c-0.1,0-0.2,0-0.3-0.1c-0.1,0-0.2-0.1-0.2-0.1
	c0,0-0.1-0.1-0.1-0.1l-5.6-14.5h0v14.4c0,0.1,0,0.1-0.1,0.2c0,0.1-0.1,0.1-0.2,0.1c-0.1,0-0.2,0.1-0.3,0.1c-0.1,0-0.3,0-0.5,0
	c-0.2,0-0.4,0-0.5,0c-0.1,0-0.3,0-0.3-0.1c-0.1,0-0.1-0.1-0.2-0.1c0-0.1,0-0.1,0-0.2V11.9c0-0.4,0.1-0.6,0.3-0.8
	c0.2-0.2,0.4-0.2,0.6-0.2h1.4c0.3,0,0.5,0,0.7,0.1c0.2,0.1,0.4,0.1,0.5,0.2c0.2,0.1,0.3,0.3,0.4,0.4c0.1,0.2,0.2,0.4,0.3,0.6l4.7,12
	h0.1l4.9-12c0.1-0.3,0.2-0.5,0.3-0.7c0.1-0.2,0.2-0.3,0.4-0.4s0.3-0.2,0.4-0.2c0.2,0,0.4-0.1,0.6-0.1h1.4c0.1,0,0.3,0,0.4,0.1
	c0.1,0,0.2,0.1,0.3,0.2c0.1,0.1,0.1,0.2,0.2,0.3c0.1,0.1,0.1,0.3,0.1,0.5V27.1z"/>
<g>
	<path fill="#FFFFFF" d="M12.6,22.6c0,0.8-0.1,1.4-0.4,2c-0.3,0.6-0.7,1.1-1.2,1.5c-0.5,0.4-1.2,0.7-1.9,0.9
		c-0.7,0.2-1.5,0.3-2.3,0.3c-0.6,0-1.1,0-1.6-0.1c-0.5-0.1-0.9-0.2-1.3-0.3c-0.4-0.1-0.7-0.3-1-0.4c-0.3-0.1-0.4-0.3-0.5-0.4
		c-0.1-0.1-0.2-0.2-0.2-0.4C2,25.6,2,25.4,2,25.2c0-0.2,0-0.3,0-0.5c0-0.1,0-0.2,0.1-0.3c0-0.1,0.1-0.1,0.1-0.2c0.1,0,0.1,0,0.2,0
		c0.1,0,0.3,0.1,0.5,0.2c0.2,0.1,0.5,0.3,0.9,0.5c0.4,0.2,0.8,0.3,1.3,0.5c0.5,0.1,1.1,0.2,1.7,0.2c0.5,0,1-0.1,1.4-0.2
		c0.4-0.1,0.8-0.3,1.1-0.5c0.3-0.2,0.5-0.5,0.7-0.8c0.2-0.3,0.2-0.7,0.2-1.1c0-0.5-0.1-0.9-0.3-1.2c-0.2-0.3-0.5-0.6-0.9-0.9
		c-0.4-0.2-0.8-0.5-1.3-0.7c-0.5-0.2-0.9-0.4-1.4-0.6s-1-0.4-1.4-0.7c-0.5-0.3-0.9-0.6-1.2-0.9S3,17.1,2.8,16.7
		c-0.2-0.5-0.3-1-0.3-1.7c0-0.7,0.1-1.3,0.4-1.8c0.3-0.5,0.6-1,1.1-1.3c0.5-0.4,1-0.6,1.7-0.8c0.6-0.2,1.3-0.3,2.1-0.3
		c0.4,0,0.8,0,1.2,0.1c0.4,0.1,0.8,0.1,1.1,0.3c0.3,0.1,0.6,0.2,0.9,0.4c0.3,0.1,0.4,0.2,0.5,0.3c0.1,0.1,0.1,0.1,0.2,0.2
		c0,0,0,0.1,0.1,0.2c0,0.1,0,0.2,0,0.3c0,0.1,0,0.2,0,0.4c0,0.2,0,0.3,0,0.4c0,0.1,0,0.2-0.1,0.3c0,0.1-0.1,0.1-0.1,0.2
		c0,0-0.1,0.1-0.2,0.1c-0.1,0-0.3-0.1-0.5-0.2c-0.2-0.1-0.5-0.2-0.8-0.4C9.8,13,9.4,12.8,9,12.7c-0.4-0.1-0.9-0.2-1.4-0.2
		c-0.5,0-0.9,0.1-1.3,0.2C6,12.8,5.7,13,5.5,13.2c-0.2,0.2-0.4,0.4-0.5,0.7c-0.1,0.3-0.2,0.6-0.2,0.9c0,0.5,0.1,0.8,0.3,1.2
		c0.2,0.3,0.5,0.6,0.9,0.9c0.4,0.3,0.8,0.5,1.3,0.7c0.5,0.2,1,0.4,1.4,0.6c0.5,0.2,1,0.4,1.4,0.7c0.5,0.3,0.9,0.6,1.3,0.9
		c0.4,0.3,0.7,0.8,0.9,1.2C12.5,21.4,12.6,22,12.6,22.6z"/>
	<path fill="#FFFFFF" d="M29.1,21v6.1c0,0.1,0,0.1-0.1,0.2c0,0.1-0.1,0.1-0.2,0.1c-0.1,0-0.2,0.1-0.3,0.1s-0.3,0-0.5,0
		c-0.2,0-0.4,0-0.5,0s-0.3,0-0.3-0.1c-0.1,0-0.2-0.1-0.2-0.1c0-0.1-0.1-0.1-0.1-0.2V21l-4.7-9.3c-0.1-0.2-0.2-0.3-0.2-0.5
		c0-0.1,0-0.2,0.1-0.3c0.1-0.1,0.2-0.1,0.3-0.1c0.2,0,0.4,0,0.7,0c0.3,0,0.5,0,0.6,0c0.2,0,0.3,0,0.4,0.1c0.1,0,0.2,0.1,0.2,0.1
		c0,0.1,0.1,0.1,0.1,0.2l2.3,4.8c0.2,0.5,0.4,0.9,0.6,1.4c0.2,0.5,0.4,1,0.6,1.5h0c0.2-0.5,0.4-1,0.6-1.5c0.2-0.5,0.4-1,0.6-1.4
		l2.3-4.8c0-0.1,0.1-0.2,0.1-0.2c0-0.1,0.1-0.1,0.2-0.1c0.1,0,0.2-0.1,0.3-0.1c0.1,0,0.3,0,0.6,0c0.3,0,0.5,0,0.7,0
		c0.2,0,0.3,0.1,0.4,0.1s0.1,0.1,0.1,0.3c0,0.1-0.1,0.3-0.2,0.4L29.1,21z"/>
	<path fill="#FFFFFF" d="M45.2,26.5c0,0.2,0,0.3,0,0.4c0,0.1,0,0.2-0.1,0.3c0,0.1-0.1,0.1-0.1,0.2c-0.1,0-0.1,0.1-0.2,0.1h-7.3
		c-0.2,0-0.4-0.1-0.6-0.2c-0.2-0.1-0.3-0.4-0.3-0.7V11.2c0-0.1,0-0.1,0.1-0.2c0-0.1,0.1-0.1,0.2-0.1c0.1,0,0.2-0.1,0.3-0.1
		c0.1,0,0.3,0,0.5,0c0.2,0,0.4,0,0.5,0c0.1,0,0.3,0,0.3,0.1c0.1,0,0.1,0.1,0.2,0.1c0,0.1,0.1,0.1,0.1,0.2v14.3h5.9
		c0.1,0,0.1,0,0.2,0.1c0.1,0,0.1,0.1,0.1,0.2c0,0.1,0.1,0.2,0.1,0.3C45.2,26.1,45.2,26.3,45.2,26.5z"/>
	<path fill="#FFFFFF" d="M56.9,26.5c0,0.2,0,0.3,0,0.4c0,0.1,0,0.2-0.1,0.3c0,0.1-0.1,0.1-0.1,0.2c-0.1,0-0.1,0.1-0.2,0.1h-7.9
		c-0.2,0-0.4-0.1-0.6-0.2c-0.2-0.1-0.3-0.4-0.3-0.7V11.8c0-0.3,0.1-0.6,0.3-0.7c0.2-0.1,0.4-0.2,0.6-0.2h7.9c0.1,0,0.1,0,0.2,0.1
		c0.1,0,0.1,0.1,0.1,0.2c0,0.1,0.1,0.2,0.1,0.3c0,0.1,0,0.3,0,0.4c0,0.2,0,0.3,0,0.4c0,0.1,0,0.2-0.1,0.3c0,0.1-0.1,0.1-0.1,0.2
		c-0.1,0-0.1,0.1-0.2,0.1h-6.5v5.2h5.6c0.1,0,0.1,0,0.2,0.1c0.1,0,0.1,0.1,0.1,0.2c0,0.1,0.1,0.2,0.1,0.3c0,0.1,0,0.3,0,0.4
		c0,0.2,0,0.3,0,0.4c0,0.1,0,0.2-0.1,0.3c0,0.1-0.1,0.1-0.1,0.1c-0.1,0-0.1,0-0.2,0h-5.6v5.9h6.6c0.1,0,0.1,0,0.2,0.1
		c0.1,0,0.1,0.1,0.1,0.2c0,0.1,0.1,0.2,0.1,0.3C56.9,26.2,56.9,26.3,56.9,26.5z"/>
	<g>
		<path fill="#FFFFFF" d="M37.3,9.1c0,0,0,0.1,0,0.1c0,0,0,0.1,0,0.1s0,0,0,0c0,0,0,0-0.1,0h-2.3c-0.1,0-0.1,0-0.2-0.1
			c0,0-0.1-0.1-0.1-0.2V5c0-0.1,0-0.2,0.1-0.2c0,0,0.1-0.1,0.2-0.1h2.2c0,0,0,0,0.1,0c0,0,0,0,0,0c0,0,0,0,0,0.1c0,0,0,0.1,0,0.1
			c0,0,0,0.1,0,0.1c0,0,0,0.1,0,0.1c0,0,0,0,0,0c0,0,0,0-0.1,0h-1.8v1.4h1.6c0,0,0,0,0.1,0c0,0,0,0,0,0c0,0,0,0,0,0.1
			c0,0,0,0.1,0,0.1C37,7,37,7,37,7c0,0,0,0.1,0,0.1s0,0,0,0c0,0,0,0-0.1,0h-1.6v1.6h1.9c0,0,0,0,0.1,0c0,0,0,0,0,0c0,0,0,0,0,0.1
			C37.3,9,37.3,9,37.3,9.1z"/>
		<path fill="#FFFFFF" d="M43,9.1C43,9.1,43,9.2,43,9.2c0,0,0,0.1,0,0.1s-0.1,0-0.1,0c0,0-0.1,0-0.2,0c-0.1,0-0.1,0-0.2,0
			c0,0-0.1,0-0.1,0c0,0,0,0-0.1,0c0,0,0,0,0-0.1l-1.1-1.8l-1.1,1.8c0,0,0,0,0,0.1c0,0,0,0-0.1,0c0,0-0.1,0-0.1,0c0,0-0.1,0-0.2,0
			c-0.1,0-0.1,0-0.2,0c0,0-0.1,0-0.1,0c0,0,0,0,0-0.1c0,0,0-0.1,0.1-0.1L40.9,7l-1.2-2c0-0.1,0-0.1-0.1-0.1c0,0,0-0.1,0-0.1
			c0,0,0.1,0,0.1,0c0,0,0.1,0,0.2,0c0.1,0,0.1,0,0.2,0c0,0,0.1,0,0.1,0c0,0,0,0,0.1,0c0,0,0,0,0,0.1l1,1.7l1-1.7c0,0,0,0,0-0.1
			c0,0,0,0,0.1,0c0,0,0.1,0,0.1,0s0.1,0,0.2,0c0.1,0,0.1,0,0.2,0c0,0,0.1,0,0.1,0c0,0,0,0,0,0.1c0,0,0,0.1-0.1,0.1l-1.2,2L43,9.1z"
			/>
		<path fill="#FFFFFF" d="M48.4,6.1c0,0.2,0,0.4-0.1,0.6C48.3,6.9,48.1,7,48,7.2c-0.1,0.1-0.3,0.2-0.5,0.3c-0.2,0.1-0.5,0.1-0.8,0.1
			h-0.5v1.7c0,0,0,0,0,0c0,0,0,0-0.1,0s-0.1,0-0.1,0c0,0-0.1,0-0.2,0s-0.1,0-0.2,0c0,0-0.1,0-0.1,0s0,0-0.1,0s0,0,0,0V5
			c0-0.1,0-0.2,0.1-0.2s0.1-0.1,0.2-0.1h1c0.1,0,0.2,0,0.3,0c0.1,0,0.2,0,0.3,0.1c0.1,0,0.3,0.1,0.4,0.2C48,5,48.1,5.1,48.2,5.2
			c0.1,0.1,0.2,0.2,0.2,0.4C48.4,5.7,48.4,5.9,48.4,6.1z M47.8,6.1c0-0.2,0-0.3-0.1-0.5c-0.1-0.1-0.2-0.2-0.3-0.3s-0.2-0.1-0.3-0.1
			c-0.1,0-0.2,0-0.3,0h-0.6v1.8h0.6c0.2,0,0.3,0,0.5-0.1c0.1,0,0.2-0.1,0.3-0.2c0.1-0.1,0.1-0.2,0.2-0.3C47.8,6.4,47.8,6.3,47.8,6.1
			z"/>
		<path fill="#FFFFFF" d="M54.2,9.2C54.2,9.2,54.2,9.3,54.2,9.2C54.2,9.3,54.2,9.3,54.2,9.2c-0.1,0.1-0.1,0.1-0.2,0.1
			c0,0-0.1,0-0.2,0c-0.1,0-0.1,0-0.2,0c0,0-0.1,0-0.1,0s0,0-0.1,0s0,0,0-0.1l-0.4-1.1C53.1,8,53,7.9,53,7.8
			c-0.1-0.1-0.1-0.2-0.2-0.3c-0.1-0.1-0.2-0.1-0.3-0.2c-0.1,0-0.2-0.1-0.4-0.1h-0.4v2c0,0,0,0,0,0s0,0-0.1,0s-0.1,0-0.1,0
			c0,0-0.1,0-0.2,0c-0.1,0-0.1,0-0.2,0c0,0-0.1,0-0.1,0s0,0-0.1,0s0,0,0,0V5c0-0.1,0-0.2,0.1-0.2c0,0,0.1-0.1,0.2-0.1h1
			c0.1,0,0.2,0,0.3,0c0.1,0,0.2,0,0.2,0c0.2,0,0.3,0.1,0.5,0.1C53.5,5,53.6,5,53.7,5.1c0.1,0.1,0.2,0.2,0.2,0.4
			c0,0.1,0.1,0.3,0.1,0.4c0,0.2,0,0.3-0.1,0.4c0,0.1-0.1,0.2-0.2,0.3c-0.1,0.1-0.2,0.2-0.3,0.2C53.3,7,53.2,7,53,7.1
			c0.1,0,0.1,0.1,0.2,0.1c0.1,0.1,0.1,0.1,0.2,0.2c0.1,0.1,0.1,0.2,0.2,0.2c0,0.1,0.1,0.2,0.1,0.3l0.4,1C54.2,9.1,54.2,9.1,54.2,9.2
			C54.2,9.2,54.2,9.2,54.2,9.2z M53.3,6c0-0.2,0-0.3-0.1-0.5c-0.1-0.1-0.2-0.2-0.4-0.3c-0.1,0-0.1,0-0.2,0c-0.1,0-0.2,0-0.3,0h-0.5
			v1.5h0.6c0.2,0,0.3,0,0.4-0.1c0.1,0,0.2-0.1,0.3-0.2s0.1-0.2,0.2-0.2C53.3,6.2,53.3,6.1,53.3,6z"/>
		<path fill="#FFFFFF" d="M59.5,9.1c0,0,0,0.1,0,0.1c0,0,0,0.1,0,0.1s0,0,0,0c0,0,0,0-0.1,0h-2.3c-0.1,0-0.1,0-0.2-0.1
			c0,0-0.1-0.1-0.1-0.2V5c0-0.1,0-0.2,0.1-0.2c0,0,0.1-0.1,0.2-0.1h2.2c0,0,0,0,0.1,0c0,0,0,0,0,0c0,0,0,0,0,0.1c0,0,0,0.1,0,0.1
			c0,0,0,0.1,0,0.1c0,0,0,0.1,0,0.1c0,0,0,0,0,0c0,0,0,0-0.1,0h-1.8v1.4H59c0,0,0,0,0.1,0c0,0,0,0,0,0c0,0,0,0,0,0.1
			c0,0,0,0.1,0,0.1c0,0,0,0.1,0,0.1c0,0,0,0.1,0,0.1s0,0,0,0c0,0,0,0-0.1,0h-1.6v1.6h1.9c0,0,0,0,0.1,0c0,0,0,0,0,0c0,0,0,0,0,0.1
			C59.5,9,59.5,9,59.5,9.1z"/>
		<path fill="#FFFFFF" d="M64.7,8c0,0.2,0,0.4-0.1,0.6c-0.1,0.2-0.2,0.3-0.3,0.4c-0.1,0.1-0.3,0.2-0.5,0.3c-0.2,0.1-0.4,0.1-0.6,0.1
			c-0.2,0-0.3,0-0.4,0c-0.1,0-0.3-0.1-0.4-0.1c-0.1,0-0.2-0.1-0.3-0.1c-0.1,0-0.1-0.1-0.1-0.1c0,0,0-0.1-0.1-0.1c0,0,0-0.1,0-0.2
			c0-0.1,0-0.1,0-0.1c0,0,0-0.1,0-0.1c0,0,0,0,0,0c0,0,0,0,0.1,0c0,0,0.1,0,0.1,0.1c0.1,0,0.1,0.1,0.2,0.1c0.1,0,0.2,0.1,0.4,0.1
			c0.1,0,0.3,0.1,0.5,0.1c0.1,0,0.3,0,0.4-0.1s0.2-0.1,0.3-0.2c0.1-0.1,0.1-0.1,0.2-0.2C64,8.3,64,8.2,64,8.1C64,8,64,7.9,64,7.8
			s-0.1-0.2-0.2-0.2c-0.1-0.1-0.2-0.1-0.3-0.2c-0.1-0.1-0.3-0.1-0.4-0.2c-0.1-0.1-0.3-0.1-0.4-0.2c-0.1-0.1-0.2-0.2-0.3-0.3
			c-0.1-0.1-0.2-0.2-0.2-0.4c-0.1-0.1-0.1-0.3-0.1-0.5c0-0.2,0-0.4,0.1-0.5c0.1-0.2,0.2-0.3,0.3-0.4c0.1-0.1,0.3-0.2,0.5-0.2
			c0.2-0.1,0.4-0.1,0.6-0.1c0.1,0,0.2,0,0.3,0s0.2,0,0.3,0.1c0.1,0,0.2,0.1,0.3,0.1c0.1,0,0.1,0.1,0.1,0.1s0,0,0,0.1c0,0,0,0,0,0
			c0,0,0,0,0,0.1c0,0,0,0.1,0,0.1c0,0,0,0.1,0,0.1c0,0,0,0.1,0,0.1c0,0,0,0,0,0c0,0,0,0,0,0c0,0-0.1,0-0.1,0c-0.1,0-0.1-0.1-0.2-0.1
			c-0.1,0-0.2-0.1-0.3-0.1c-0.1,0-0.2-0.1-0.4-0.1c-0.1,0-0.2,0-0.3,0.1c-0.1,0-0.2,0.1-0.2,0.1s-0.1,0.1-0.1,0.2c0,0.1,0,0.2,0,0.2
			c0,0.1,0,0.2,0.1,0.3c0.1,0.1,0.1,0.2,0.2,0.2c0.1,0.1,0.2,0.1,0.3,0.2c0.1,0.1,0.3,0.1,0.4,0.2s0.3,0.1,0.4,0.2
			c0.1,0.1,0.2,0.2,0.3,0.3c0.1,0.1,0.2,0.2,0.2,0.3C64.7,7.7,64.7,7.8,64.7,8z"/>
		<path fill="#FFFFFF" d="M69.8,8c0,0.2,0,0.4-0.1,0.6c-0.1,0.2-0.2,0.3-0.3,0.4c-0.1,0.1-0.3,0.2-0.5,0.3c-0.2,0.1-0.4,0.1-0.6,0.1
			c-0.2,0-0.3,0-0.4,0c-0.1,0-0.3-0.1-0.4-0.1c-0.1,0-0.2-0.1-0.3-0.1C67.1,9.1,67,9.1,67,9c0,0,0-0.1-0.1-0.1c0,0,0-0.1,0-0.2
			c0-0.1,0-0.1,0-0.1s0-0.1,0-0.1c0,0,0,0,0,0c0,0,0,0,0.1,0c0,0,0.1,0,0.1,0.1c0.1,0,0.1,0.1,0.2,0.1c0.1,0,0.2,0.1,0.4,0.1
			c0.1,0,0.3,0.1,0.5,0.1c0.1,0,0.3,0,0.4-0.1c0.1,0,0.2-0.1,0.3-0.2c0.1-0.1,0.1-0.1,0.2-0.2c0-0.1,0.1-0.2,0.1-0.3
			c0-0.1,0-0.2-0.1-0.3s-0.1-0.2-0.2-0.2c-0.1-0.1-0.2-0.1-0.3-0.2c-0.1-0.1-0.3-0.1-0.4-0.2C68,7.1,67.8,7,67.7,6.9
			c-0.1-0.1-0.2-0.2-0.3-0.3c-0.1-0.1-0.2-0.2-0.2-0.4C67.1,6.2,67,6,67,5.9c0-0.2,0-0.4,0.1-0.5c0.1-0.2,0.2-0.3,0.3-0.4
			s0.3-0.2,0.5-0.2s0.4-0.1,0.6-0.1c0.1,0,0.2,0,0.3,0c0.1,0,0.2,0,0.3,0.1c0.1,0,0.2,0.1,0.3,0.1c0.1,0,0.1,0.1,0.1,0.1s0,0,0,0.1
			c0,0,0,0,0,0c0,0,0,0,0,0.1c0,0,0,0.1,0,0.1c0,0,0,0.1,0,0.1c0,0,0,0.1,0,0.1c0,0,0,0,0,0c0,0,0,0,0,0c0,0-0.1,0-0.1,0
			c-0.1,0-0.1-0.1-0.2-0.1s-0.2-0.1-0.3-0.1c-0.1,0-0.2-0.1-0.4-0.1c-0.1,0-0.2,0-0.3,0.1c-0.1,0-0.2,0.1-0.2,0.1
			c-0.1,0.1-0.1,0.1-0.1,0.2c0,0.1,0,0.2,0,0.2c0,0.1,0,0.2,0.1,0.3c0.1,0.1,0.1,0.2,0.2,0.2c0.1,0.1,0.2,0.1,0.3,0.2
			c0.1,0.1,0.3,0.1,0.4,0.2c0.1,0.1,0.3,0.1,0.4,0.2c0.1,0.1,0.2,0.2,0.3,0.3c0.1,0.1,0.2,0.2,0.2,0.3C69.8,7.7,69.8,7.8,69.8,8z"/>
		<path fill="#FFFFFF" d="M77.3,7.5v1.7c0,0,0,0,0,0c0,0,0,0-0.1,0s-0.1,0-0.1,0c0,0-0.1,0-0.1,0c-0.1,0-0.1,0-0.2,0
			c0,0-0.1,0-0.1,0c0,0,0,0-0.1,0c0,0,0,0,0,0V7.5l-1.3-2.6c0-0.1,0-0.1,0-0.1c0,0,0-0.1,0-0.1c0,0,0.1,0,0.1,0c0,0,0.1,0,0.2,0
			c0.1,0,0.1,0,0.2,0s0.1,0,0.1,0s0,0,0.1,0c0,0,0,0,0,0.1l0.7,1.3c0.1,0.1,0.1,0.3,0.2,0.4C76.9,6.7,76.9,6.8,77,7h0
			c0.1-0.1,0.1-0.3,0.2-0.4c0.1-0.1,0.1-0.3,0.2-0.4L78,4.8c0,0,0,0,0-0.1c0,0,0,0,0.1,0s0.1,0,0.1,0c0,0,0.1,0,0.2,0
			c0.1,0,0.2,0,0.2,0c0,0,0.1,0,0.1,0c0,0,0,0,0,0.1s0,0.1,0,0.1L77.3,7.5z"/>
		<path fill="#FFFFFF" d="M85.1,7c0,0.4,0,0.7-0.1,1c-0.1,0.3-0.2,0.6-0.4,0.8s-0.4,0.4-0.7,0.5c-0.3,0.1-0.6,0.2-0.9,0.2
			c-0.4,0-0.7-0.1-0.9-0.2c-0.3-0.1-0.5-0.3-0.6-0.4C81.2,8.6,81,8.3,81,8c-0.1-0.3-0.1-0.6-0.1-1c0-0.4,0-0.7,0.1-1
			c0.1-0.3,0.2-0.5,0.4-0.8c0.2-0.2,0.4-0.4,0.7-0.5c0.3-0.1,0.6-0.2,0.9-0.2c0.3,0,0.7,0.1,0.9,0.2c0.3,0.1,0.5,0.3,0.6,0.4
			s0.3,0.4,0.4,0.7C85,6.3,85.1,6.6,85.1,7z M84.4,7c0-0.3,0-0.5-0.1-0.7s-0.1-0.4-0.2-0.6c-0.1-0.2-0.3-0.3-0.4-0.4
			c-0.2-0.1-0.4-0.1-0.7-0.1c-0.3,0-0.5,0-0.7,0.1c-0.2,0.1-0.3,0.2-0.4,0.4c-0.1,0.2-0.2,0.4-0.2,0.6c0,0.2-0.1,0.5-0.1,0.7
			c0,0.3,0,0.5,0.1,0.7s0.1,0.4,0.2,0.6c0.1,0.2,0.3,0.3,0.4,0.4c0.2,0.1,0.4,0.1,0.7,0.1c0.3,0,0.5,0,0.7-0.1
			c0.2-0.1,0.3-0.2,0.5-0.4c0.1-0.2,0.2-0.4,0.2-0.6C84.4,7.5,84.4,7.3,84.4,7z"/>
		<path fill="#FFFFFF" d="M91.3,7.6c0,0.3,0,0.5-0.1,0.7c-0.1,0.2-0.2,0.4-0.4,0.6c-0.2,0.2-0.3,0.3-0.6,0.3
			c-0.2,0.1-0.5,0.1-0.8,0.1c-0.3,0-0.5,0-0.7-0.1c-0.2-0.1-0.4-0.2-0.6-0.3c-0.2-0.1-0.3-0.3-0.4-0.5c-0.1-0.2-0.1-0.5-0.1-0.7V4.8
			c0,0,0,0,0,0c0,0,0,0,0.1,0s0.1,0,0.1,0c0,0,0.1,0,0.2,0c0.1,0,0.1,0,0.1,0c0,0,0.1,0,0.1,0s0,0,0,0c0,0,0,0,0,0v2.8
			c0,0.2,0,0.4,0.1,0.6c0.1,0.2,0.1,0.3,0.2,0.4c0.1,0.1,0.2,0.2,0.4,0.2s0.3,0.1,0.5,0.1c0.2,0,0.3,0,0.5-0.1
			c0.1-0.1,0.3-0.1,0.4-0.2c0.1-0.1,0.2-0.2,0.2-0.4c0.1-0.2,0.1-0.3,0.1-0.5V4.8c0,0,0,0,0,0c0,0,0,0,0.1,0s0.1,0,0.1,0
			c0,0,0.1,0,0.2,0c0.1,0,0.1,0,0.1,0c0,0,0.1,0,0.1,0s0,0,0.1,0c0,0,0,0,0,0V7.6z"/>
		<path fill="#FFFFFF" d="M97.4,9.2C97.4,9.2,97.4,9.3,97.4,9.2C97.3,9.3,97.3,9.3,97.4,9.2c-0.1,0.1-0.1,0.1-0.2,0.1
			c0,0-0.1,0-0.2,0c-0.1,0-0.1,0-0.2,0c0,0-0.1,0-0.1,0c0,0,0,0-0.1,0s0,0,0-0.1l-0.4-1.1c-0.1-0.1-0.1-0.2-0.2-0.3
			C96,7.7,96,7.6,95.9,7.5c-0.1-0.1-0.2-0.1-0.3-0.2c-0.1,0-0.2-0.1-0.4-0.1h-0.4v2c0,0,0,0,0,0c0,0,0,0-0.1,0s-0.1,0-0.1,0
			c0,0-0.1,0-0.2,0c-0.1,0-0.1,0-0.2,0c0,0-0.1,0-0.1,0s0,0-0.1,0c0,0,0,0,0,0V5c0-0.1,0-0.2,0.1-0.2c0.1,0,0.1-0.1,0.2-0.1h1
			c0.1,0,0.2,0,0.3,0c0.1,0,0.1,0,0.2,0c0.2,0,0.3,0.1,0.5,0.1C96.6,5,96.7,5,96.8,5.1C96.9,5.2,97,5.4,97,5.5s0.1,0.3,0.1,0.4
			c0,0.2,0,0.3-0.1,0.4c0,0.1-0.1,0.2-0.2,0.3c-0.1,0.1-0.2,0.2-0.3,0.2C96.4,7,96.3,7,96.2,7.1c0.1,0,0.1,0.1,0.2,0.1
			c0.1,0.1,0.1,0.1,0.2,0.2c0.1,0.1,0.1,0.2,0.2,0.2s0.1,0.2,0.1,0.3l0.4,1C97.3,9.1,97.3,9.1,97.4,9.2C97.4,9.2,97.4,9.2,97.4,9.2z
			 M96.4,6c0-0.2,0-0.3-0.1-0.5c-0.1-0.1-0.2-0.2-0.4-0.3c-0.1,0-0.1,0-0.2,0c-0.1,0-0.2,0-0.3,0h-0.5v1.5h0.6c0.2,0,0.3,0,0.4-0.1
			c0.1,0,0.2-0.1,0.3-0.2c0.1-0.1,0.1-0.2,0.2-0.2C96.4,6.2,96.4,6.1,96.4,6z"/>
		<path fill="#FFFFFF" d="M102.5,8c0,0.2,0,0.4-0.1,0.6c-0.1,0.2-0.2,0.3-0.3,0.4c-0.1,0.1-0.3,0.2-0.5,0.3
			c-0.2,0.1-0.4,0.1-0.6,0.1c-0.2,0-0.3,0-0.4,0c-0.1,0-0.3-0.1-0.4-0.1c-0.1,0-0.2-0.1-0.3-0.1c-0.1,0-0.1-0.1-0.1-0.1
			c0,0,0-0.1-0.1-0.1c0,0,0-0.1,0-0.2c0-0.1,0-0.1,0-0.1s0-0.1,0-0.1c0,0,0,0,0,0c0,0,0,0,0.1,0c0,0,0.1,0,0.1,0.1
			c0.1,0,0.1,0.1,0.2,0.1c0.1,0,0.2,0.1,0.4,0.1c0.1,0,0.3,0.1,0.5,0.1c0.1,0,0.3,0,0.4-0.1c0.1,0,0.2-0.1,0.3-0.2
			c0.1-0.1,0.1-0.1,0.2-0.2c0-0.1,0.1-0.2,0.1-0.3c0-0.1,0-0.2-0.1-0.3s-0.1-0.2-0.2-0.2c-0.1-0.1-0.2-0.1-0.3-0.2
			c-0.1-0.1-0.3-0.1-0.4-0.2c-0.1-0.1-0.3-0.1-0.4-0.2c-0.1-0.1-0.2-0.2-0.3-0.3c-0.1-0.1-0.2-0.2-0.2-0.4c-0.1-0.1-0.1-0.3-0.1-0.5
			c0-0.2,0-0.4,0.1-0.5c0.1-0.2,0.2-0.3,0.3-0.4s0.3-0.2,0.5-0.2s0.4-0.1,0.6-0.1c0.1,0,0.2,0,0.3,0c0.1,0,0.2,0,0.3,0.1
			c0.1,0,0.2,0.1,0.3,0.1c0.1,0,0.1,0.1,0.1,0.1s0,0,0,0.1c0,0,0,0,0,0c0,0,0,0,0,0.1c0,0,0,0.1,0,0.1c0,0,0,0.1,0,0.1
			c0,0,0,0.1,0,0.1c0,0,0,0,0,0c0,0,0,0,0,0c0,0-0.1,0-0.1,0c-0.1,0-0.1-0.1-0.2-0.1s-0.2-0.1-0.3-0.1c-0.1,0-0.2-0.1-0.4-0.1
			c-0.1,0-0.2,0-0.3,0.1c-0.1,0-0.2,0.1-0.2,0.1c-0.1,0.1-0.1,0.1-0.1,0.2c0,0.1,0,0.2,0,0.2c0,0.1,0,0.2,0.1,0.3
			c0.1,0.1,0.1,0.2,0.2,0.2c0.1,0.1,0.2,0.1,0.3,0.2c0.1,0.1,0.3,0.1,0.4,0.2c0.1,0.1,0.3,0.1,0.4,0.2c0.1,0.1,0.2,0.2,0.3,0.3
			c0.1,0.1,0.2,0.2,0.2,0.3C102.5,7.7,102.5,7.8,102.5,8z"/>
		<path fill="#FFFFFF" d="M107.7,9.1c0,0,0,0.1,0,0.1s0,0.1,0,0.1s0,0,0,0c0,0,0,0-0.1,0h-2.3c-0.1,0-0.1,0-0.2-0.1
			c0,0-0.1-0.1-0.1-0.2V5c0-0.1,0-0.2,0.1-0.2c0.1,0,0.1-0.1,0.2-0.1h2.2c0,0,0,0,0.1,0c0,0,0,0,0,0c0,0,0,0,0,0.1c0,0,0,0.1,0,0.1
			c0,0,0,0.1,0,0.1c0,0,0,0.1,0,0.1c0,0,0,0,0,0c0,0,0,0-0.1,0h-1.8v1.4h1.6c0,0,0,0,0.1,0c0,0,0,0,0,0c0,0,0,0,0,0.1
			c0,0,0,0.1,0,0.1c0,0,0,0.1,0,0.1s0,0.1,0,0.1c0,0,0,0,0,0c0,0,0,0-0.1,0h-1.6v1.6h1.9c0,0,0,0,0.1,0c0,0,0,0,0,0c0,0,0,0,0,0.1
			C107.7,9,107.7,9,107.7,9.1z"/>
		<path fill="#FFFFFF" d="M112.9,9.1c0,0,0,0.1,0,0.1s0,0.1,0,0.1c0,0,0,0,0,0c0,0,0,0-0.1,0h-2.1c-0.1,0-0.1,0-0.2-0.1
			c0,0-0.1-0.1-0.1-0.2V4.8c0,0,0,0,0,0c0,0,0,0,0.1,0s0.1,0,0.1,0c0,0,0.1,0,0.1,0c0.1,0,0.1,0,0.2,0c0,0,0.1,0,0.1,0s0,0,0.1,0
			c0,0,0,0,0,0v4h1.7c0,0,0,0,0.1,0c0,0,0,0,0,0c0,0,0,0,0,0.1S112.9,9,112.9,9.1z"/>
		<path fill="#FFFFFF" d="M117.7,5c0,0,0,0.1,0,0.1c0,0,0,0.1,0,0.1c0,0,0,0,0,0c0,0,0,0,0,0h-1.7v1.6h1.6c0,0,0,0,0,0c0,0,0,0,0,0
			c0,0,0,0,0,0.1c0,0,0,0.1,0,0.1c0,0,0,0.1,0,0.1c0,0,0,0.1,0,0.1c0,0,0,0,0,0c0,0,0,0,0,0h-1.6v1.9c0,0,0,0,0,0c0,0,0,0-0.1,0
			c0,0-0.1,0-0.1,0c0,0-0.1,0-0.2,0c-0.1,0-0.1,0-0.1,0c0,0-0.1,0-0.1,0s0,0-0.1,0c0,0,0,0,0,0V5c0-0.1,0-0.2,0.1-0.2
			c0.1,0,0.1-0.1,0.2-0.1h2.1c0,0,0,0,0,0c0,0,0,0,0,0c0,0,0,0,0,0.1C117.7,4.9,117.7,4.9,117.7,5z"/>
	</g>
</g>
</svg>
