<?xml version="1.0" encoding="utf-8"?>
<!-- Generator: Adobe Illustrator 18.0.0, SVG Export Plug-In . SVG Version: 6.00 Build 0)  -->
<!DOCTYPE svg PUBLIC "-//W3C//DTD SVG 1.1//EN" "http://www.w3.org/Graphics/SVG/1.1/DTD/svg11.dtd">
<svg version="1.1" id="Layer_1" xmlns="http://www.w3.org/2000/svg" xmlns:xlink="http://www.w3.org/1999/xlink" x="0px" y="0px"
	 viewBox="0 0 123 21" enable-background="new 0 0 123 21" xml:space="preserve">
<title>Friday</title>
<desc>Created with Sketch.</desc>
<title>Vorbes</title>
<desc>Created with Sketch.</desc>
<title>Norton</title>
<desc>Created with Sketch.</desc>
<path fill="#E9204F" d="M41.2,3.8c0,0.1,0,1.8,0,1.9c0,0.1,0,0.2-0.1,0.3C41.1,6,41.1,6,41,6.1c0,0-0.1,0-0.1,0l-8.7,0l0.1,12.6
	c0,0.1,0,0.1,0,0.2c0,0-0.1,0.1-0.1,0.1c-0.1,0-0.1,0-0.2,0.1c-0.1,0-0.2,0-0.4,0c-0.1,0-2,0-2.1,0c-0.1,0-0.2,0-0.2-0.1
	C29.1,19,29,19,29,19c0,0,0-0.1,0-0.2V6.1h-8.6c0,0-0.1,0-0.1,0c0,0-0.1-0.1-0.1-0.1c0-0.1,0-0.1-0.1-0.3s0-1.7,0-1.9
	c0-0.1,0-0.3,0-0.4c0-0.1,0-0.2,0.1-0.3c0-0.1,0.1-0.1,0.1-0.1c0,0,0.1,0,0.1,0h20.6c0,0,0.1,0,0.1,0c0,0,0.1,0.1,0.1,0.1
	c0,0.1,0,0.2,0.1,0.3C41.2,3.5,41.2,3.6,41.2,3.8z"/>
<path fill="#E9204F" d="M68.2,7.9c0,0.1,0,0.2,0,0.3c0,0.1,0,0.2-0.1,0.2c0,0.1-0.1,0.1-0.1,0.1c0,0-0.1,0-0.1,0h-4.4v4h4.1
	c0,0,0.1,0,0.1,0c0,0,0.1,0.1,0.1,0.1c0,0,0.1,0.1,0.1,0.2c0,0.1,0,0.2,0,0.3c0,0.1,0,0.2,0,0.3c0,0.1,0,0.1-0.1,0.2
	c0,0.1-0.1,0.1-0.1,0.1c0,0-0.1,0-0.1,0h-4.1v5c0,0,0,0.1,0,0.1c0,0-0.1,0.1-0.1,0.1c-0.1,0-0.1,0-0.2,0.1c-0.1,0-0.2,0-0.4,0
	c-0.1,0-0.3,0-0.4,0c-0.1,0-0.2,0-0.2-0.1C62,19.1,62,19.1,62,19c0,0,0-0.1,0-0.1v-11c0-0.2,0.1-0.4,0.2-0.5
	c0.1-0.1,0.3-0.1,0.4-0.1h5.3c0,0,0.1,0,0.1,0c0,0,0.1,0.1,0.1,0.1c0,0.1,0.1,0.1,0.1,0.2C68.2,7.7,68.2,7.8,68.2,7.9z"/>
<path fill="#E9204F" d="M78.5,18.9c0,0,0,0.1,0,0.1c0,0-0.1,0.1-0.1,0.1c-0.1,0-0.1,0-0.3,0.1c-0.1,0-0.3,0-0.4,0
	c-0.2,0-0.3,0-0.4,0c-0.1,0-0.2,0-0.2-0.1c-0.1,0-0.1-0.1-0.1-0.1c0,0-0.1-0.1-0.1-0.2L75.7,16c-0.1-0.3-0.3-0.6-0.4-0.9
	c-0.1-0.3-0.3-0.5-0.5-0.7c-0.2-0.2-0.4-0.3-0.7-0.4c-0.3-0.1-0.6-0.2-0.9-0.2h-1.1v5.1c0,0,0,0.1,0,0.1c0,0-0.1,0.1-0.1,0.1
	c-0.1,0-0.1,0-0.2,0.1c-0.1,0-0.2,0-0.4,0c-0.2,0-0.3,0-0.4,0c-0.1,0-0.2,0-0.2-0.1c-0.1,0-0.1-0.1-0.1-0.1c0,0,0-0.1,0-0.1v-11
	c0-0.2,0.1-0.4,0.2-0.5c0.1-0.1,0.3-0.1,0.4-0.1h2.5c0.3,0,0.5,0,0.7,0c0.2,0,0.4,0,0.5,0.1c0.5,0.1,0.9,0.2,1.2,0.4
	c0.4,0.2,0.6,0.4,0.9,0.7c0.2,0.3,0.4,0.6,0.5,0.9c0.1,0.3,0.2,0.7,0.2,1.1c0,0.4-0.1,0.8-0.2,1.1s-0.3,0.6-0.5,0.8
	c-0.2,0.2-0.4,0.5-0.7,0.6c-0.3,0.2-0.6,0.3-0.9,0.4c0.2,0.1,0.4,0.2,0.5,0.3c0.2,0.1,0.3,0.3,0.4,0.5c0.1,0.2,0.3,0.4,0.4,0.6
	c0.1,0.2,0.2,0.5,0.4,0.8l1.1,2.6c0.1,0.2,0.1,0.4,0.2,0.5C78.5,18.8,78.5,18.9,78.5,18.9z M76.1,10.6c0-0.5-0.1-0.9-0.3-1.2
	c-0.2-0.3-0.6-0.6-1-0.7c-0.2,0-0.3-0.1-0.5-0.1c-0.2,0-0.4,0-0.8,0h-1.3v4h1.5c0.4,0,0.8-0.1,1.1-0.2c0.3-0.1,0.6-0.2,0.8-0.4
	c0.2-0.2,0.4-0.4,0.4-0.6C76.1,11.1,76.1,10.8,76.1,10.6z"/>
<path fill="#E9204F" d="M87.4,18.5c0,0.1,0,0.2,0,0.3c0,0.1,0,0.2-0.1,0.2c0,0.1-0.1,0.1-0.1,0.1c0,0-0.1,0-0.1,0h-5.7
	c-0.1,0-0.3,0-0.4-0.1c-0.1-0.1-0.2-0.3-0.2-0.5V7.9c0-0.2,0.1-0.4,0.2-0.5c0.1-0.1,0.3-0.1,0.4-0.1H87c0,0,0.1,0,0.1,0
	c0,0,0.1,0.1,0.1,0.1c0,0.1,0,0.1,0.1,0.2c0,0.1,0,0.2,0,0.3c0,0.1,0,0.2,0,0.3c0,0.1,0,0.1-0.1,0.2c0,0.1-0.1,0.1-0.1,0.1
	c0,0-0.1,0-0.1,0h-4.6v3.7h4c0,0,0.1,0,0.1,0c0,0,0.1,0.1,0.1,0.1c0,0,0,0.1,0.1,0.2c0,0.1,0,0.2,0,0.3c0,0.1,0,0.2,0,0.3
	c0,0.1,0,0.1-0.1,0.2c0,0-0.1,0.1-0.1,0.1c0,0-0.1,0-0.1,0h-4v4.3h4.7c0,0,0.1,0,0.1,0c0,0,0.1,0.1,0.1,0.1c0,0.1,0.1,0.1,0.1,0.2
	C87.4,18.3,87.4,18.4,87.4,18.5z"/>
<path fill="#E9204F" d="M102.9,18.9c0,0,0,0.1,0,0.1c0,0-0.1,0.1-0.1,0.1c-0.1,0-0.1,0-0.2,0.1c-0.1,0-0.2,0-0.4,0
	c-0.1,0-0.3,0-0.4,0c-0.1,0-0.2,0-0.2-0.1c-0.1,0-0.1-0.1-0.1-0.1c0,0,0-0.1,0-0.1V8.6h0l-4.2,10.4c0,0,0,0.1-0.1,0.1
	c0,0-0.1,0.1-0.1,0.1c-0.1,0-0.1,0-0.2,0c-0.1,0-0.2,0-0.3,0c-0.1,0-0.2,0-0.3,0c-0.1,0-0.2,0-0.2-0.1c-0.1,0-0.1,0-0.1-0.1
	c0,0-0.1-0.1-0.1-0.1l-4-10.4h0v10.4c0,0,0,0.1,0,0.1c0,0-0.1,0.1-0.1,0.1c-0.1,0-0.1,0-0.2,0.1c-0.1,0-0.2,0-0.4,0
	c-0.2,0-0.3,0-0.4,0c-0.1,0-0.2,0-0.2-0.1c-0.1,0-0.1-0.1-0.1-0.1c0,0,0-0.1,0-0.1V8c0-0.3,0.1-0.4,0.2-0.6c0.1-0.1,0.3-0.2,0.5-0.2
	h1c0.2,0,0.4,0,0.5,0.1c0.1,0,0.3,0.1,0.4,0.2c0.1,0.1,0.2,0.2,0.3,0.3c0.1,0.1,0.1,0.3,0.2,0.4l3.4,8.6h0l3.5-8.6
	c0.1-0.2,0.1-0.3,0.2-0.5c0.1-0.1,0.2-0.2,0.3-0.3c0.1-0.1,0.2-0.1,0.3-0.2c0.1,0,0.3-0.1,0.4-0.1h1c0.1,0,0.2,0,0.3,0
	c0.1,0,0.2,0.1,0.2,0.1c0.1,0.1,0.1,0.1,0.1,0.2c0,0.1,0.1,0.2,0.1,0.3V18.9z"/>
<g>
	<path fill="#FFFFFF" d="M27.6,15.7c0,0.5-0.1,1-0.3,1.5c-0.2,0.4-0.5,0.8-0.9,1.1c-0.4,0.3-0.8,0.5-1.3,0.7
		c-0.5,0.1-1.1,0.2-1.7,0.2c-0.4,0-0.8,0-1.2-0.1c-0.4-0.1-0.7-0.1-1-0.2c-0.3-0.1-0.5-0.2-0.7-0.3c-0.2-0.1-0.3-0.2-0.4-0.3
		c-0.1-0.1-0.1-0.2-0.2-0.3c0-0.1-0.1-0.3-0.1-0.4c0-0.1,0-0.2,0-0.3c0-0.1,0-0.2,0.1-0.2c0-0.1,0.1-0.1,0.1-0.1s0.1,0,0.1,0
		c0.1,0,0.2,0.1,0.4,0.2c0.2,0.1,0.4,0.2,0.6,0.3c0.3,0.1,0.6,0.2,0.9,0.3c0.4,0.1,0.8,0.2,1.3,0.2c0.4,0,0.7,0,1-0.1
		c0.3-0.1,0.6-0.2,0.8-0.4c0.2-0.2,0.4-0.4,0.5-0.6c0.1-0.2,0.2-0.5,0.2-0.8c0-0.3-0.1-0.6-0.2-0.8c-0.2-0.2-0.4-0.4-0.6-0.6
		c-0.3-0.2-0.6-0.3-0.9-0.5c-0.3-0.1-0.7-0.3-1-0.5c-0.4-0.2-0.7-0.3-1-0.5c-0.3-0.2-0.6-0.4-0.9-0.7s-0.5-0.5-0.6-0.9
		c-0.2-0.3-0.2-0.7-0.2-1.2c0-0.5,0.1-0.9,0.3-1.3c0.2-0.4,0.5-0.7,0.8-1c0.3-0.3,0.7-0.5,1.2-0.6c0.5-0.1,1-0.2,1.5-0.2
		c0.3,0,0.6,0,0.8,0.1c0.3,0,0.5,0.1,0.8,0.2c0.2,0.1,0.5,0.2,0.7,0.3c0.2,0.1,0.3,0.2,0.4,0.2S26.8,8,26.8,8c0,0,0,0.1,0,0.1
		c0,0.1,0,0.1,0,0.2c0,0.1,0,0.2,0,0.3c0,0.1,0,0.2,0,0.3c0,0.1,0,0.2,0,0.2c0,0.1,0,0.1-0.1,0.1c0,0-0.1,0-0.1,0
		c-0.1,0-0.2,0-0.3-0.1C26.2,9.1,26,9,25.8,8.9c-0.2-0.1-0.5-0.2-0.8-0.3c-0.3-0.1-0.6-0.1-1-0.1c-0.3,0-0.6,0-0.9,0.1
		c-0.3,0.1-0.5,0.2-0.6,0.3c-0.2,0.1-0.3,0.3-0.4,0.5C22,9.6,22,9.8,22,10.1c0,0.3,0.1,0.6,0.2,0.8c0.2,0.2,0.4,0.4,0.6,0.6
		c0.3,0.2,0.6,0.3,0.9,0.5c0.3,0.1,0.7,0.3,1,0.5c0.4,0.2,0.7,0.3,1,0.5c0.3,0.2,0.6,0.4,0.9,0.6c0.3,0.2,0.5,0.5,0.6,0.9
		S27.6,15.3,27.6,15.7z"/>
	<path fill="#FFFFFF" d="M39.5,14.5v4.4c0,0,0,0.1,0,0.1c0,0-0.1,0.1-0.1,0.1c-0.1,0-0.1,0-0.2,0.1c-0.1,0-0.2,0-0.4,0
		c-0.2,0-0.3,0-0.4,0c-0.1,0-0.2,0-0.2-0.1c-0.1,0-0.1-0.1-0.1-0.1c0,0,0-0.1,0-0.1v-4.4l-3.4-6.7c-0.1-0.1-0.1-0.3-0.1-0.3
		c0-0.1,0-0.1,0-0.2c0,0,0.1-0.1,0.2-0.1c0.1,0,0.3,0,0.5,0c0.2,0,0.3,0,0.4,0c0.1,0,0.2,0,0.3,0.1S36,7.3,36,7.4
		c0,0,0.1,0.1,0.1,0.2l1.6,3.4c0.2,0.3,0.3,0.7,0.5,1c0.2,0.4,0.3,0.7,0.5,1.1h0c0.1-0.3,0.3-0.7,0.4-1c0.1-0.3,0.3-0.7,0.5-1
		l1.7-3.4c0-0.1,0-0.1,0.1-0.2c0,0,0.1-0.1,0.1-0.1s0.1,0,0.2-0.1c0.1,0,0.2,0,0.4,0c0.2,0,0.4,0,0.5,0c0.1,0,0.2,0,0.3,0.1
		s0.1,0.1,0.1,0.2c0,0.1-0.1,0.2-0.1,0.3L39.5,14.5z"/>
	<path fill="#FFFFFF" d="M51,18.5c0,0.1,0,0.2,0,0.3c0,0.1,0,0.2-0.1,0.2s-0.1,0.1-0.1,0.1c0,0-0.1,0-0.1,0h-5.3
		c-0.1,0-0.3,0-0.4-0.1c-0.1-0.1-0.2-0.3-0.2-0.5v-11c0,0,0-0.1,0-0.1c0,0,0.1-0.1,0.1-0.1c0.1,0,0.1,0,0.2-0.1c0.1,0,0.2,0,0.4,0
		c0.2,0,0.3,0,0.4,0c0.1,0,0.2,0,0.2,0.1c0.1,0,0.1,0.1,0.1,0.1c0,0,0,0.1,0,0.1v10.3h4.3c0.1,0,0.1,0,0.1,0c0,0,0.1,0.1,0.1,0.1
		s0,0.1,0.1,0.2C51,18.2,51,18.3,51,18.5z"/>
	<path fill="#FFFFFF" d="M59.4,18.5c0,0.1,0,0.2,0,0.3c0,0.1,0,0.2-0.1,0.2c0,0.1-0.1,0.1-0.1,0.1c0,0-0.1,0-0.1,0h-5.7
		c-0.1,0-0.3,0-0.4-0.1c-0.1-0.1-0.2-0.3-0.2-0.5V7.9c0-0.2,0.1-0.4,0.2-0.5c0.1-0.1,0.3-0.1,0.4-0.1H59c0,0,0.1,0,0.1,0
		c0,0,0.1,0.1,0.1,0.1c0,0.1,0,0.1,0.1,0.2c0,0.1,0,0.2,0,0.3c0,0.1,0,0.2,0,0.3c0,0.1,0,0.1-0.1,0.2c0,0.1-0.1,0.1-0.1,0.1
		c0,0-0.1,0-0.1,0h-4.6v3.7h4c0,0,0.1,0,0.1,0c0,0,0.1,0.1,0.1,0.1c0,0,0,0.1,0.1,0.2c0,0.1,0,0.2,0,0.3c0,0.1,0,0.2,0,0.3
		c0,0.1,0,0.1-0.1,0.2c0,0-0.1,0.1-0.1,0.1c0,0-0.1,0-0.1,0h-4v4.3H59c0,0,0.1,0,0.1,0c0,0,0.1,0.1,0.1,0.1c0,0.1,0.1,0.1,0.1,0.2
		C59.3,18.3,59.4,18.4,59.4,18.5z"/>
	<g>
		<path fill="#FFFFFF" d="M45.3,6C45.3,6,45.3,6,45.3,6c0,0.1,0,0.1,0,0.1s0,0,0,0c0,0,0,0,0,0h-1.6c0,0-0.1,0-0.1,0
			c0,0-0.1-0.1-0.1-0.1V3c0-0.1,0-0.1,0.1-0.1c0,0,0.1,0,0.1,0h1.6c0,0,0,0,0,0c0,0,0,0,0,0c0,0,0,0,0,0.1c0,0,0,0.1,0,0.1
			c0,0,0,0.1,0,0.1c0,0,0,0,0,0.1c0,0,0,0,0,0c0,0,0,0,0,0h-1.3v1H45c0,0,0,0,0,0c0,0,0,0,0,0c0,0,0,0,0,0.1c0,0,0,0.1,0,0.1
			c0,0,0,0.1,0,0.1c0,0,0,0,0,0.1c0,0,0,0,0,0c0,0,0,0,0,0h-1.1v1.2h1.3c0,0,0,0,0,0c0,0,0,0,0,0S45.3,5.9,45.3,6
			C45.3,5.9,45.3,5.9,45.3,6z"/>
		<path fill="#FFFFFF" d="M49.4,6C49.4,6,49.4,6.1,49.4,6c0,0.1,0,0.1,0,0.1c0,0,0,0-0.1,0c0,0-0.1,0-0.1,0c-0.1,0-0.1,0-0.1,0
			s-0.1,0-0.1,0c0,0,0,0,0,0c0,0,0,0,0,0l-0.8-1.3l-0.8,1.3c0,0,0,0,0,0s0,0,0,0c0,0,0,0-0.1,0s-0.1,0-0.1,0c-0.1,0-0.1,0-0.1,0
			c0,0-0.1,0-0.1,0s0,0,0-0.1c0,0,0-0.1,0-0.1l0.9-1.5L47,3c0,0,0-0.1,0-0.1c0,0,0,0,0-0.1c0,0,0,0,0.1,0c0,0,0.1,0,0.1,0
			c0.1,0,0.1,0,0.1,0c0,0,0.1,0,0.1,0c0,0,0,0,0,0c0,0,0,0,0,0l0.7,1.2l0.7-1.2c0,0,0,0,0,0c0,0,0,0,0,0c0,0,0,0,0.1,0
			c0,0,0.1,0,0.1,0c0.1,0,0.1,0,0.1,0c0,0,0.1,0,0.1,0c0,0,0,0,0,0.1c0,0,0,0.1,0,0.1l-0.9,1.5L49.4,6z"/>
		<path fill="#FFFFFF" d="M53.3,3.8c0,0.2,0,0.3-0.1,0.4c-0.1,0.1-0.1,0.2-0.2,0.3s-0.2,0.2-0.4,0.2c-0.2,0.1-0.3,0.1-0.5,0.1h-0.4
			v1.2c0,0,0,0,0,0c0,0,0,0,0,0c0,0,0,0-0.1,0c0,0-0.1,0-0.1,0c0,0-0.1,0-0.1,0c0,0-0.1,0-0.1,0c0,0,0,0,0,0s0,0,0,0V3
			c0-0.1,0-0.1,0.1-0.1c0,0,0.1,0,0.1,0h0.7c0.1,0,0.1,0,0.2,0c0.1,0,0.1,0,0.2,0c0.1,0,0.2,0.1,0.3,0.1C53,3.1,53,3.1,53.1,3.2
			c0.1,0.1,0.1,0.2,0.2,0.3C53.3,3.6,53.3,3.7,53.3,3.8z M52.8,3.9c0-0.1,0-0.2-0.1-0.3c-0.1-0.1-0.1-0.2-0.2-0.2
			c-0.1,0-0.2-0.1-0.2-0.1c-0.1,0-0.2,0-0.2,0h-0.4v1.3h0.4c0.1,0,0.2,0,0.3-0.1c0.1,0,0.2-0.1,0.2-0.1c0.1-0.1,0.1-0.1,0.1-0.2
			C52.8,4,52.8,4,52.8,3.9z"/>
		<path fill="#FFFFFF" d="M57.5,6.1C57.5,6.1,57.5,6.1,57.5,6.1C57.5,6.1,57.4,6.1,57.5,6.1c-0.1,0.1-0.1,0.1-0.1,0.1
			c0,0-0.1,0-0.1,0c0,0-0.1,0-0.1,0c0,0-0.1,0-0.1,0s0,0,0,0c0,0,0,0,0-0.1l-0.3-0.8c0-0.1-0.1-0.2-0.1-0.2s-0.1-0.1-0.1-0.2
			c-0.1-0.1-0.1-0.1-0.2-0.1s-0.2,0-0.3,0h-0.3v1.4c0,0,0,0,0,0c0,0,0,0,0,0c0,0,0,0-0.1,0c0,0-0.1,0-0.1,0c0,0-0.1,0-0.1,0
			c0,0-0.1,0-0.1,0c0,0,0,0,0,0c0,0,0,0,0,0V3c0-0.1,0-0.1,0.1-0.1c0,0,0.1,0,0.1,0h0.7c0.1,0,0.2,0,0.2,0c0.1,0,0.1,0,0.2,0
			c0.1,0,0.2,0.1,0.3,0.1c0.1,0,0.2,0.1,0.3,0.2c0.1,0.1,0.1,0.2,0.2,0.3c0,0.1,0.1,0.2,0.1,0.3c0,0.1,0,0.2,0,0.3
			c0,0.1-0.1,0.2-0.1,0.2C57,4.3,57,4.4,56.9,4.4c-0.1,0-0.2,0.1-0.3,0.1c0.1,0,0.1,0.1,0.2,0.1c0,0,0.1,0.1,0.1,0.1S57,4.9,57,4.9
			c0,0.1,0.1,0.1,0.1,0.2l0.3,0.7C57.4,6,57.4,6,57.5,6.1C57.5,6.1,57.5,6.1,57.5,6.1z M56.8,3.8c0-0.1,0-0.2-0.1-0.3
			c-0.1-0.1-0.2-0.2-0.3-0.2c0,0-0.1,0-0.1,0c-0.1,0-0.1,0-0.2,0h-0.4v1.1h0.4c0.1,0,0.2,0,0.3,0c0.1,0,0.2-0.1,0.2-0.1
			c0.1-0.1,0.1-0.1,0.1-0.2C56.8,3.9,56.8,3.8,56.8,3.8z"/>
		<path fill="#FFFFFF" d="M61.2,6C61.2,6,61.2,6,61.2,6c0,0.1,0,0.1,0,0.1s0,0,0,0c0,0,0,0,0,0h-1.6c0,0-0.1,0-0.1,0
			c0,0-0.1-0.1-0.1-0.1V3c0-0.1,0-0.1,0.1-0.1c0,0,0.1,0,0.1,0h1.6c0,0,0,0,0,0c0,0,0,0,0,0c0,0,0,0,0,0.1c0,0,0,0.1,0,0.1
			c0,0,0,0.1,0,0.1c0,0,0,0,0,0.1c0,0,0,0,0,0c0,0,0,0,0,0h-1.3v1h1.1c0,0,0,0,0,0c0,0,0,0,0,0c0,0,0,0,0,0.1c0,0,0,0.1,0,0.1
			c0,0,0,0.1,0,0.1c0,0,0,0,0,0.1c0,0,0,0,0,0c0,0,0,0,0,0h-1.1v1.2h1.3c0,0,0,0,0,0c0,0,0,0,0,0S61.2,5.9,61.2,6
			C61.2,5.9,61.2,5.9,61.2,6z"/>
		<path fill="#FFFFFF" d="M65,5.2c0,0.2,0,0.3-0.1,0.4s-0.1,0.2-0.2,0.3c-0.1,0.1-0.2,0.1-0.4,0.2S64,6.2,63.8,6.2
			c-0.1,0-0.2,0-0.3,0c-0.1,0-0.2,0-0.3-0.1c-0.1,0-0.1-0.1-0.2-0.1C63,6,63,6,63,5.9c0,0,0,0,0-0.1c0,0,0-0.1,0-0.1
			c0,0,0-0.1,0-0.1s0,0,0-0.1c0,0,0,0,0,0c0,0,0,0,0,0c0,0,0.1,0,0.1,0c0,0,0.1,0.1,0.2,0.1c0.1,0,0.2,0.1,0.3,0.1
			c0.1,0,0.2,0,0.3,0c0.1,0,0.2,0,0.3,0c0.1,0,0.2-0.1,0.2-0.1c0.1,0,0.1-0.1,0.1-0.2c0-0.1,0-0.1,0-0.2c0-0.1,0-0.2-0.1-0.2
			s-0.1-0.1-0.2-0.2c-0.1-0.1-0.2-0.1-0.2-0.1c-0.1,0-0.2-0.1-0.3-0.1c-0.1,0-0.2-0.1-0.3-0.1s-0.2-0.1-0.2-0.2
			C63.1,4.2,63.1,4.1,63,4C63,3.9,63,3.8,63,3.7c0-0.1,0-0.3,0.1-0.4c0.1-0.1,0.1-0.2,0.2-0.3c0.1-0.1,0.2-0.1,0.3-0.2
			s0.3-0.1,0.4-0.1c0.1,0,0.2,0,0.2,0c0.1,0,0.1,0,0.2,0.1c0.1,0,0.1,0,0.2,0.1c0.1,0,0.1,0,0.1,0.1c0,0,0,0,0,0c0,0,0,0,0,0
			c0,0,0,0,0,0.1c0,0,0,0,0,0.1c0,0,0,0.1,0,0.1s0,0,0,0.1c0,0,0,0,0,0c0,0,0,0,0,0c0,0,0,0-0.1,0c0,0-0.1-0.1-0.2-0.1
			c-0.1,0-0.1-0.1-0.2-0.1c-0.1,0-0.2,0-0.3,0c-0.1,0-0.2,0-0.2,0c-0.1,0-0.1,0.1-0.2,0.1c0,0-0.1,0.1-0.1,0.1c0,0.1,0,0.1,0,0.2
			c0,0.1,0,0.2,0.1,0.2c0,0.1,0.1,0.1,0.2,0.2c0.1,0.1,0.2,0.1,0.2,0.1c0.1,0,0.2,0.1,0.3,0.1c0.1,0,0.2,0.1,0.3,0.1
			s0.2,0.1,0.2,0.2c0.1,0.1,0.1,0.2,0.2,0.3C65,5,65,5.1,65,5.2z"/>
		<path fill="#FFFFFF" d="M68.7,5.2c0,0.2,0,0.3-0.1,0.4s-0.1,0.2-0.2,0.3C68.2,6,68.1,6.1,68,6.1s-0.3,0.1-0.5,0.1
			c-0.1,0-0.2,0-0.3,0c-0.1,0-0.2,0-0.3-0.1c-0.1,0-0.1-0.1-0.2-0.1c-0.1,0-0.1-0.1-0.1-0.1c0,0,0,0,0-0.1c0,0,0-0.1,0-0.1
			c0,0,0-0.1,0-0.1c0,0,0,0,0-0.1c0,0,0,0,0,0c0,0,0,0,0,0c0,0,0.1,0,0.1,0c0,0,0.1,0.1,0.2,0.1c0.1,0,0.2,0.1,0.3,0.1
			c0.1,0,0.2,0,0.3,0c0.1,0,0.2,0,0.3,0c0.1,0,0.2-0.1,0.2-0.1c0.1,0,0.1-0.1,0.1-0.2c0-0.1,0-0.1,0-0.2c0-0.1,0-0.2-0.1-0.2
			S68,4.9,67.9,4.9c-0.1-0.1-0.2-0.1-0.2-0.1c-0.1,0-0.2-0.1-0.3-0.1c-0.1,0-0.2-0.1-0.3-0.1C67,4.4,67,4.3,66.9,4.3
			c-0.1-0.1-0.1-0.2-0.2-0.3c0-0.1-0.1-0.2-0.1-0.3c0-0.1,0-0.3,0.1-0.4c0.1-0.1,0.1-0.2,0.2-0.3s0.2-0.1,0.3-0.2s0.3-0.1,0.4-0.1
			c0.1,0,0.2,0,0.2,0s0.1,0,0.2,0.1c0.1,0,0.1,0,0.2,0.1c0.1,0,0.1,0,0.1,0.1c0,0,0,0,0,0c0,0,0,0,0,0c0,0,0,0,0,0.1c0,0,0,0,0,0.1
			c0,0,0,0.1,0,0.1s0,0,0,0.1c0,0,0,0,0,0c0,0,0,0,0,0c0,0,0,0-0.1,0c0,0-0.1-0.1-0.2-0.1c-0.1,0-0.1-0.1-0.2-0.1
			c-0.1,0-0.2,0-0.3,0c-0.1,0-0.2,0-0.2,0c-0.1,0-0.1,0.1-0.2,0.1c0,0-0.1,0.1-0.1,0.1c0,0.1,0,0.1,0,0.2c0,0.1,0,0.2,0.1,0.2
			c0,0.1,0.1,0.1,0.2,0.2c0.1,0.1,0.2,0.1,0.2,0.1c0.1,0,0.2,0.1,0.3,0.1c0.1,0,0.2,0.1,0.3,0.1s0.2,0.1,0.2,0.2
			c0.1,0.1,0.1,0.2,0.2,0.3C68.6,5,68.7,5.1,68.7,5.2z"/>
		<path fill="#FFFFFF" d="M74,4.9v1.2c0,0,0,0,0,0c0,0,0,0,0,0c0,0,0,0-0.1,0c0,0-0.1,0-0.1,0c0,0-0.1,0-0.1,0c0,0-0.1,0-0.1,0
			c0,0,0,0,0,0c0,0,0,0,0,0V4.9l-1-1.9c0,0,0-0.1,0-0.1c0,0,0,0,0-0.1c0,0,0,0,0.1,0c0,0,0.1,0,0.1,0c0.1,0,0.1,0,0.1,0
			c0,0,0.1,0,0.1,0c0,0,0,0,0,0c0,0,0,0,0,0l0.5,0.9c0,0.1,0.1,0.2,0.1,0.3s0.1,0.2,0.1,0.3h0c0-0.1,0.1-0.2,0.1-0.3
			C74,4.1,74,4,74.1,3.9l0.5-1c0,0,0,0,0,0c0,0,0,0,0,0c0,0,0,0,0.1,0c0,0,0.1,0,0.1,0c0.1,0,0.1,0,0.1,0c0,0,0.1,0,0.1,0
			c0,0,0,0,0,0.1c0,0,0,0.1,0,0.1L74,4.9z"/>
		<path fill="#FFFFFF" d="M79.6,4.5c0,0.3,0,0.5-0.1,0.7c-0.1,0.2-0.2,0.4-0.3,0.5c-0.1,0.2-0.3,0.3-0.5,0.3
			c-0.2,0.1-0.4,0.1-0.7,0.1c-0.3,0-0.5,0-0.7-0.1C77.2,6,77,5.9,76.9,5.8c-0.1-0.1-0.2-0.3-0.3-0.5c-0.1-0.2-0.1-0.4-0.1-0.7
			c0-0.3,0-0.5,0.1-0.7c0.1-0.2,0.2-0.4,0.3-0.5c0.1-0.1,0.3-0.3,0.5-0.3c0.2-0.1,0.4-0.1,0.7-0.1c0.2,0,0.5,0,0.7,0.1
			C79,3,79.1,3.1,79.2,3.2c0.1,0.1,0.2,0.3,0.3,0.5C79.6,4,79.6,4.2,79.6,4.5z M79.1,4.5c0-0.2,0-0.4-0.1-0.5S79,3.7,78.9,3.6
			c-0.1-0.1-0.2-0.2-0.3-0.3c-0.1-0.1-0.3-0.1-0.5-0.1s-0.4,0-0.5,0.1s-0.2,0.2-0.3,0.3S77.1,3.8,77.1,4c0,0.2-0.1,0.3-0.1,0.5
			c0,0.2,0,0.4,0,0.5c0,0.2,0.1,0.3,0.2,0.4c0.1,0.1,0.2,0.2,0.3,0.3c0.1,0.1,0.3,0.1,0.5,0.1c0.2,0,0.4,0,0.5-0.1s0.2-0.2,0.3-0.3
			C79,5.3,79,5.2,79.1,5S79.1,4.7,79.1,4.5z"/>
		<path fill="#FFFFFF" d="M84.1,4.9c0,0.2,0,0.4-0.1,0.5c-0.1,0.2-0.1,0.3-0.3,0.4s-0.2,0.2-0.4,0.2c-0.2,0.1-0.3,0.1-0.5,0.1
			c-0.2,0-0.4,0-0.5-0.1C82.1,6.1,82,6,81.9,5.9s-0.2-0.2-0.3-0.4c-0.1-0.2-0.1-0.3-0.1-0.5v-2c0,0,0,0,0,0c0,0,0,0,0,0s0,0,0.1,0
			c0,0,0.1,0,0.1,0c0,0,0.1,0,0.1,0c0,0,0.1,0,0.1,0s0,0,0,0c0,0,0,0,0,0v2c0,0.2,0,0.3,0.1,0.4c0,0.1,0.1,0.2,0.2,0.3
			c0.1,0.1,0.2,0.1,0.3,0.2c0.1,0,0.2,0.1,0.3,0.1c0.1,0,0.2,0,0.3-0.1c0.1,0,0.2-0.1,0.3-0.2c0.1-0.1,0.1-0.2,0.2-0.3
			c0-0.1,0.1-0.2,0.1-0.4v-2c0,0,0,0,0,0c0,0,0,0,0,0c0,0,0,0,0.1,0c0,0,0.1,0,0.1,0c0,0,0.1,0,0.1,0c0,0,0.1,0,0.1,0s0,0,0,0
			c0,0,0,0,0,0V4.9z"/>
		<path fill="#FFFFFF" d="M88.4,6.1C88.4,6.1,88.4,6.1,88.4,6.1C88.4,6.1,88.4,6.1,88.4,6.1c-0.1,0.1-0.1,0.1-0.1,0.1
			c0,0-0.1,0-0.1,0c0,0-0.1,0-0.1,0c0,0-0.1,0-0.1,0c0,0,0,0,0,0c0,0,0,0,0-0.1l-0.3-0.8c0-0.1-0.1-0.2-0.1-0.2s-0.1-0.1-0.1-0.2
			c-0.1-0.1-0.1-0.1-0.2-0.1c-0.1,0-0.2,0-0.3,0h-0.3v1.4c0,0,0,0,0,0c0,0,0,0,0,0c0,0,0,0-0.1,0c0,0-0.1,0-0.1,0s-0.1,0-0.1,0
			c0,0-0.1,0-0.1,0c0,0,0,0,0,0c0,0,0,0,0,0V3c0-0.1,0-0.1,0.1-0.1c0,0,0.1,0,0.1,0h0.7c0.1,0,0.2,0,0.2,0c0.1,0,0.1,0,0.2,0
			c0.1,0,0.2,0.1,0.3,0.1C87.9,3,88,3.1,88,3.2c0.1,0.1,0.1,0.2,0.2,0.3c0,0.1,0.1,0.2,0.1,0.3c0,0.1,0,0.2,0,0.3
			c0,0.1-0.1,0.2-0.1,0.2c-0.1,0.1-0.1,0.1-0.2,0.2s-0.2,0.1-0.3,0.1c0.1,0,0.1,0.1,0.2,0.1c0,0,0.1,0.1,0.1,0.1
			c0,0.1,0.1,0.1,0.1,0.2C88,5,88,5.1,88.1,5.2l0.3,0.7C88.4,6,88.4,6,88.4,6.1C88.4,6.1,88.4,6.1,88.4,6.1z M87.7,3.8
			c0-0.1,0-0.2-0.1-0.3c-0.1-0.1-0.2-0.2-0.3-0.2c0,0-0.1,0-0.1,0c-0.1,0-0.1,0-0.2,0h-0.4v1.1h0.4c0.1,0,0.2,0,0.3,0
			c0.1,0,0.2-0.1,0.2-0.1c0.1-0.1,0.1-0.1,0.1-0.2C87.7,3.9,87.7,3.8,87.7,3.8z"/>
		<path fill="#FFFFFF" d="M92.1,5.2c0,0.2,0,0.3-0.1,0.4c-0.1,0.1-0.1,0.2-0.2,0.3c-0.1,0.1-0.2,0.1-0.4,0.2c-0.1,0-0.3,0.1-0.5,0.1
			c-0.1,0-0.2,0-0.3,0c-0.1,0-0.2,0-0.3-0.1S90.2,6,90.2,6c-0.1,0-0.1-0.1-0.1-0.1c0,0,0,0,0-0.1c0,0,0-0.1,0-0.1c0,0,0-0.1,0-0.1
			s0,0,0-0.1c0,0,0,0,0,0c0,0,0,0,0,0c0,0,0.1,0,0.1,0c0,0,0.1,0.1,0.2,0.1c0.1,0,0.2,0.1,0.3,0.1c0.1,0,0.2,0,0.3,0
			c0.1,0,0.2,0,0.3,0c0.1,0,0.2-0.1,0.2-0.1c0.1,0,0.1-0.1,0.1-0.2c0-0.1,0-0.1,0-0.2c0-0.1,0-0.2-0.1-0.2s-0.1-0.1-0.2-0.2
			c-0.1-0.1-0.2-0.1-0.2-0.1c-0.1,0-0.2-0.1-0.3-0.1c-0.1,0-0.2-0.1-0.3-0.1c-0.1-0.1-0.2-0.1-0.2-0.2c-0.1-0.1-0.1-0.2-0.2-0.3
			c0-0.1-0.1-0.2-0.1-0.3c0-0.1,0-0.3,0.1-0.4c0.1-0.1,0.1-0.2,0.2-0.3c0.1-0.1,0.2-0.1,0.3-0.2s0.3-0.1,0.4-0.1c0.1,0,0.2,0,0.2,0
			s0.1,0,0.2,0.1c0.1,0,0.1,0,0.2,0.1c0.1,0,0.1,0,0.1,0.1s0,0,0,0c0,0,0,0,0,0c0,0,0,0,0,0.1c0,0,0,0,0,0.1c0,0,0,0.1,0,0.1
			s0,0,0,0.1c0,0,0,0,0,0c0,0,0,0,0,0c0,0,0,0-0.1,0c0,0-0.1-0.1-0.2-0.1c-0.1,0-0.1-0.1-0.2-0.1s-0.2,0-0.3,0c-0.1,0-0.2,0-0.2,0
			c-0.1,0-0.1,0.1-0.2,0.1s-0.1,0.1-0.1,0.1c0,0.1,0,0.1,0,0.2c0,0.1,0,0.2,0.1,0.2c0,0.1,0.1,0.1,0.2,0.2c0.1,0.1,0.2,0.1,0.2,0.1
			c0.1,0,0.2,0.1,0.3,0.1c0.1,0,0.2,0.1,0.3,0.1s0.2,0.1,0.2,0.2C91.9,4.7,92,4.8,92,4.9C92.1,5,92.1,5.1,92.1,5.2z"/>
		<path fill="#FFFFFF" d="M95.8,6C95.8,6,95.8,6,95.8,6c0,0.1,0,0.1,0,0.1s0,0,0,0c0,0,0,0,0,0h-1.6c0,0-0.1,0-0.1,0
			C94,6.1,94,6,94,6V3C94,3,94,2.9,94,2.9c0,0,0.1,0,0.1,0h1.6c0,0,0,0,0,0c0,0,0,0,0,0c0,0,0,0,0,0.1c0,0,0,0.1,0,0.1
			c0,0,0,0.1,0,0.1c0,0,0,0,0,0.1c0,0,0,0,0,0c0,0,0,0,0,0h-1.3v1h1.1c0,0,0,0,0,0c0,0,0,0,0,0c0,0,0,0,0,0.1c0,0,0,0.1,0,0.1
			c0,0,0,0.1,0,0.1s0,0,0,0.1c0,0,0,0,0,0c0,0,0,0,0,0h-1.1v1.2h1.3c0,0,0,0,0,0c0,0,0,0,0,0S95.8,5.9,95.8,6
			C95.8,5.9,95.8,5.9,95.8,6z"/>
		<path fill="#FFFFFF" d="M99.5,6C99.5,6,99.5,6,99.5,6c0,0.1,0,0.1,0,0.1c0,0,0,0,0,0c0,0,0,0,0,0H98c0,0-0.1,0-0.1,0
			c0,0-0.1-0.1-0.1-0.1V2.9c0,0,0,0,0,0c0,0,0,0,0,0s0,0,0.1,0c0,0,0.1,0,0.1,0c0,0,0.1,0,0.1,0c0,0,0.1,0,0.1,0c0,0,0,0,0,0
			c0,0,0,0,0,0v2.9h1.2c0,0,0,0,0,0c0,0,0,0,0,0C99.5,5.8,99.5,5.9,99.5,6C99.5,5.9,99.5,5.9,99.5,6z"/>
		<path fill="#FFFFFF" d="M103,3C103,3.1,103,3.1,103,3c0,0.1,0,0.1,0,0.1c0,0,0,0,0,0c0,0,0,0,0,0h-1.2v1.1h1.2c0,0,0,0,0,0
			c0,0,0,0,0,0c0,0,0,0,0,0.1c0,0,0,0.1,0,0.1c0,0,0,0.1,0,0.1c0,0,0,0,0,0.1c0,0,0,0,0,0c0,0,0,0,0,0h-1.2v1.4c0,0,0,0,0,0
			c0,0,0,0,0,0c0,0,0,0-0.1,0c0,0-0.1,0-0.1,0c0,0-0.1,0-0.1,0c0,0-0.1,0-0.1,0c0,0,0,0,0,0c0,0,0,0,0,0V3c0-0.1,0-0.1,0.1-0.1
			c0,0,0.1,0,0.1,0h1.5c0,0,0,0,0,0c0,0,0,0,0,0C103,2.9,103,2.9,103,3C103,3,103,3,103,3z"/>
	</g>
</g>
</svg>
